<svg width="305" height="275" viewBox="0 0 305 275" fill="none" xmlns="http://www.w3.org/2000/svg">
<g clip-path="url(#clip0_11_4193)">
<path d="M296.065 168.123C286.403 194.046 266.658 222.105 238.868 230.413C196.883 242.966 191.867 276.865 116.669 273.719C104.944 273.229 94.109 271.577 84.152 268.94C78.7972 267.52 73.6996 265.812 68.8653 263.847C24.9365 246.031 2.01898 206.807 0.119119 165.768C-2.38895 111.793 35.2133 86.0648 59.6481 71.0058C84.0893 55.9405 113.54 -2.43054 187.491 0.0751076C198.764 0.464457 210.013 2.00302 220.917 4.96709C245.797 11.7116 271.091 26.6325 285.794 48.4361C286.898 50.0751 287.951 51.7518 288.961 53.4599C308.63 86.8812 309.251 132.78 296.078 168.123H296.065Z" fill="#4CB2E0"/>
<path opacity="0.7" d="M296.065 168.123C286.403 194.046 266.658 222.105 238.868 230.413C196.883 242.966 191.867 276.865 116.669 273.719C104.944 273.229 94.109 271.577 84.152 268.94C78.7972 267.52 73.6996 265.812 68.8653 263.847C24.9365 246.031 2.01898 206.807 0.119119 165.768C-2.38895 111.793 35.2133 86.0648 59.6481 71.0058C84.0893 55.9405 113.54 -2.43054 187.491 0.0751076C198.764 0.464457 210.013 2.00302 220.917 4.96709C245.797 11.7116 271.091 26.6325 285.794 48.4361C286.898 50.0751 287.951 51.7518 288.961 53.4599C308.63 86.8812 309.251 132.78 296.078 168.123H296.065Z" fill="white"/>
<g opacity="0.3">
<path d="M255.422 33.8043C255.422 33.8043 246.199 11.379 220.736 10.4999C195.266 9.6207 196.15 23.2542 190.438 27.2105C184.732 31.1668 179.459 21.4959 170.681 24.573C161.896 27.6501 163.219 31.1668 159.263 34.6898C155.313 38.2065 146.967 34.2502 143.456 36.8877C139.944 39.5252 137.311 43.0419 137.311 43.0419C137.311 43.0419 131.166 40.844 128.526 43.0419L125.893 45.2399H278.252C278.252 45.2399 277.374 37.3273 270.351 34.6835C263.329 32.046 260.25 35.5627 255.422 33.8043Z" stroke="black" stroke-linecap="round" stroke-linejoin="round"/>
<path d="M98.6261 107.153C98.6261 107.153 92.5691 92.414 75.834 91.8363C59.0989 91.2585 59.6757 100.214 55.9262 102.813C52.1766 105.413 48.7155 99.0581 42.9406 101.08C37.1721 103.102 38.0374 105.413 35.4415 107.724C32.8457 110.035 27.3655 107.435 25.0581 109.169C22.7507 110.902 21.0201 113.213 21.0201 113.213C21.0201 113.213 16.9821 111.768 15.2516 113.213L13.521 114.657H113.624C113.624 114.657 113.047 109.457 108.433 107.724C103.818 105.991 101.799 108.302 98.6261 107.147V107.153Z" stroke="black" stroke-linecap="round" stroke-linejoin="round"/>
<path d="M270.765 171.797C270.765 171.797 264.708 157.059 247.973 156.481C231.238 155.903 231.815 164.858 228.065 167.458C224.315 170.058 220.854 163.703 215.079 165.725C209.311 167.747 210.176 170.058 207.58 172.369C204.984 174.68 199.504 172.08 197.197 173.813C194.889 175.546 193.159 177.857 193.159 177.857C193.159 177.857 189.121 176.413 187.39 177.857L185.66 179.302H285.769C285.769 179.302 285.193 174.102 280.578 172.369C275.963 170.636 273.944 172.947 270.771 171.791L270.765 171.797Z" stroke="black" stroke-linecap="round" stroke-linejoin="round"/>
</g>
<path d="M239.201 152.744C239.201 152.744 237.464 157.53 233.771 158.183C230.078 158.836 223.563 151.658 227.689 147.965C231.815 144.267 237.458 150.138 239.195 152.751L239.201 152.744Z" fill="#4CB2E0" stroke="#263238" stroke-linecap="round" stroke-linejoin="round"/>
<path d="M244.844 129.264C244.844 129.264 239.414 142.527 241.59 149.052C243.759 155.577 257.221 160.362 261.134 151.878C265.04 143.4 256.356 131.437 253.102 128.824C249.848 126.212 245.935 127.085 244.85 129.258L244.844 129.264Z" fill="#4CB2E0" stroke="#263238" stroke-linecap="round" stroke-linejoin="round"/>
<path d="M276.546 134.916C276.546 134.916 267.21 143.394 266.125 151.878C265.04 160.356 271.335 163.401 277.85 162.315C284.365 161.228 287.619 144.7 285.669 137.089C283.713 129.478 276.552 134.916 276.552 134.916H276.546Z" fill="#4CB2E0" stroke="#263238" stroke-linecap="round" stroke-linejoin="round"/>
<path d="M278.283 181.883C278.283 181.883 267.862 182.316 267.429 187.321C266.996 192.326 271.988 193.413 276.985 189.061C281.976 184.709 282.628 182.103 278.289 181.883H278.283Z" fill="#4CB2E0" stroke="#263238" stroke-linecap="round" stroke-linejoin="round"/>
<path d="M267.598 188.514C267.598 188.514 275.812 184.753 279.512 184.1" stroke="#263238" stroke-miterlimit="10"/>
<path d="M280.603 214.613C280.603 214.613 272.947 207.517 269.097 210.732C265.247 213.947 268 218.262 274.602 218.745C281.205 219.229 283.512 217.847 280.603 214.613Z" fill="#4CB2E0" stroke="#263238" stroke-linecap="round" stroke-linejoin="round"/>
<path d="M268.376 211.699C268.376 211.699 276.834 214.883 279.9 217.05" stroke="#263238" stroke-miterlimit="10"/>
<path d="M240.223 212.522C240.223 212.522 250.776 202.738 256.08 207.178C261.385 211.611 257.591 217.558 248.493 218.224C239.395 218.89 236.216 216.987 240.223 212.528V212.522Z" fill="#4CB2E0" stroke="#263238" stroke-linecap="round" stroke-linejoin="round"/>
<path d="M257.077 208.503C257.077 208.503 245.421 212.886 241.188 215.875" stroke="#263238" stroke-miterlimit="10"/>
<path d="M252.443 192.326C252.443 192.326 251.359 197.545 247.452 199.504C243.546 201.463 236.599 197.331 240.286 191.026C243.979 184.721 250.493 189.72 252.443 192.332V192.326Z" fill="#4CB2E0" stroke="#263238" stroke-linecap="round" stroke-linejoin="round"/>
<path d="M243.327 176.017C243.327 176.017 241.37 171.665 233.771 174.498C226.171 177.324 223.13 181.676 227.908 183.195C232.686 184.715 243.327 176.017 243.327 176.017Z" fill="#4CB2E0" stroke="#263238" stroke-linecap="round" stroke-linejoin="round"/>
<path d="M241.866 175.816C241.866 175.816 233.815 176.689 229.463 180.394" stroke="#263238" stroke-miterlimit="10"/>
<path d="M265.034 123.826C265.034 123.826 266.338 126.871 268.94 126.218C271.549 125.565 272.194 121.653 276.32 122.739C280.446 123.826 283.92 128.611 283.92 126.438C283.92 124.265 278.709 118.607 272.847 118.607C266.984 118.607 265.247 121 265.028 123.826H265.034Z" fill="#4CB2E0" stroke="#263238" stroke-linecap="round" stroke-linejoin="round"/>
<path d="M243.327 176.017C243.327 176.017 252.675 174.221 256.569 184.621C256.952 185.638 257.271 186.706 257.547 187.805" stroke="#263238" stroke-miterlimit="10"/>
<path d="M282.34 165.938C282.34 165.938 284.296 161.586 291.895 164.419C299.495 167.245 302.536 171.596 297.758 173.116C292.98 174.636 282.34 165.938 282.34 165.938Z" fill="#4CB2E0" stroke="#263238" stroke-linecap="round" stroke-linejoin="round"/>
<path d="M284.076 166.227C284.076 166.227 291.908 165.794 295.607 170.365" stroke="#263238" stroke-miterlimit="10"/>
<path d="M282.34 165.938C282.34 165.938 279.242 165.342 275.869 166.824" stroke="#263238" stroke-miterlimit="10"/>
<path d="M248.305 158.139C243.722 153.454 239.195 152.744 239.195 152.744C239.195 152.744 232.511 150.973 229.896 153.372" stroke="#263238" stroke-miterlimit="10"/>
<path d="M249.239 134.049L248.832 132.234" stroke="#263238" stroke-miterlimit="10"/>
<path d="M259.811 230.187C259.811 230.187 260.783 192.74 259.811 181.368C258.839 169.995 254.293 156.675 254.293 156.675L249.666 135.983" stroke="#263238" stroke-miterlimit="10"/>
<path d="M279.11 142.094L279.944 140.298" stroke="#263238" stroke-miterlimit="10"/>
<path d="M262.081 230.143C262.081 230.143 262.407 195.987 263.705 186.235C265.003 176.488 270.194 161.216 270.194 161.216L278.157 144.122" stroke="#263238" stroke-miterlimit="10"/>
<path d="M267.598 188.514C267.598 188.514 265.329 208.095 264.031 230.193" stroke="#263238" stroke-miterlimit="10"/>
<path d="M256.563 230.143C256.563 230.143 257.209 198.907 255.917 194.687C254.619 190.461 252.443 192.326 252.443 192.326C252.443 192.326 246.437 193.036 244.261 196.521" stroke="#263238" stroke-miterlimit="10"/>
<path d="M258.055 190.229C259.754 199.755 258.187 230.174 258.187 230.174" stroke="#263238" stroke-miterlimit="10"/>
<path d="M274.032 167.847C272.151 169.135 270.345 171.213 269.103 174.541C265.21 184.941 265.655 230.193 265.655 230.193" stroke="#263238" stroke-miterlimit="10"/>
<path d="M249.44 159.382C251.465 161.768 253.434 164.99 254.945 169.342C260.137 184.288 262.081 222.997 261.109 230.143" stroke="#263238" stroke-miterlimit="10"/>
<path d="M262.62 173.367C262.306 192.232 262.081 230.143 262.081 230.143" stroke="#263238" stroke-miterlimit="10"/>
<path d="M262.664 171.019C262.877 158.547 263.128 146.339 263.385 139.77C264.031 122.871 265.04 123.819 265.04 123.819C265.04 123.819 266.244 120.026 272.985 120.46" stroke="#263238" stroke-miterlimit="10"/>
<path d="M254.35 185.268C254.35 185.268 248.92 180.42 251.095 178.033C253.265 175.647 266.727 173.901 270.639 176.997C274.546 180.099 265.862 184.47 262.607 185.418C259.353 186.373 255.441 186.053 254.356 185.261L254.35 185.268Z" fill="#4CB2E0" stroke="#263238" stroke-linecap="round" stroke-linejoin="round"/>
<path d="M259.366 181.299C259.29 181.789 259.247 182.278 259.247 182.749" stroke="#263238" stroke-miterlimit="10"/>
<path d="M261.234 175.634C261.234 175.634 260.425 177.254 259.842 179.233" stroke="#263238" stroke-miterlimit="10"/>
<path d="M254.35 216.962C254.35 216.962 248.92 212.114 251.095 209.728C253.265 207.341 266.727 205.595 270.639 208.691C274.546 211.794 265.862 216.164 262.607 217.113C259.353 218.067 255.441 217.747 254.356 216.956L254.35 216.962Z" fill="#4CB2E0" stroke="#263238" stroke-linecap="round" stroke-linejoin="round"/>
<path d="M261.234 207.335C261.234 207.335 259.247 211.316 259.247 214.444" stroke="#263238" stroke-miterlimit="10"/>
<path d="M258.394 203.554C258.394 203.554 254.707 200.264 256.18 198.644C257.654 197.023 266.796 195.836 269.448 197.94C272.1 200.044 266.206 203.014 263.993 203.661C261.78 204.308 259.127 204.094 258.394 203.554Z" fill="#4CB2E0" stroke="#263238" stroke-linecap="round" stroke-linejoin="round"/>
<path d="M263.065 197.017C263.065 197.017 261.717 199.717 261.717 201.84" stroke="#263238" stroke-miterlimit="10"/>
<path d="M267.987 224.755H253.296V257.385H267.987V224.755Z" fill="#263238" stroke="#263238" stroke-linecap="round" stroke-linejoin="round"/>
<path d="M163.366 189.909C173.229 187.978 179.221 176.148 176.75 163.486C174.279 150.823 164.28 142.124 154.417 144.054C144.554 145.985 138.562 157.815 141.034 170.478C143.505 183.14 153.504 191.839 163.366 189.909Z" fill="#4CB2E0" stroke="#263238" stroke-miterlimit="10"/>
<path d="M72.408 144.97C72.408 144.97 57.9113 122.545 41.0195 126.174C29.7708 128.592 36.3795 150.031 36.3795 150.031" fill="#4CB2E0"/>
<path d="M72.408 144.97C72.408 144.97 57.9113 122.545 41.0195 126.174C29.7708 128.592 36.3795 150.031 36.3795 150.031" stroke="#263238" stroke-miterlimit="10"/>
<path d="M40.1542 152.135C40.1542 152.135 40.1228 152.142 40.104 152.142L39.0694 151.878C39.0694 151.878 32.6049 132.216 42.0227 132.461C49.967 132.668 60.6576 151.03 63.7927 156.751C57.673 152.474 49.1519 150.559 40.1542 152.129V152.135Z" fill="#263238" stroke="#263238" stroke-miterlimit="10"/>
<path d="M110.129 247.871L114.092 265.379C115.327 270.824 120.155 274.686 125.73 274.686C131.304 274.686 136.138 270.824 137.367 265.379L144.346 234.564" fill="#263238"/>
<path d="M110.129 247.871L114.092 265.379C115.327 270.824 120.155 274.686 125.73 274.686C131.304 274.686 136.138 270.824 137.367 265.379L144.346 234.564" stroke="#263238" stroke-miterlimit="10"/>
<path d="M49.572 247.871L53.5473 265.442C54.77 270.849 59.5729 274.692 65.1095 274.692C70.7025 274.692 75.5368 270.774 76.7031 265.298L80.6721 246.666" fill="#263238"/>
<path d="M49.572 247.871L53.5473 265.442C54.77 270.849 59.5729 274.692 65.1095 274.692C70.7025 274.692 75.5368 270.774 76.7031 265.298L80.6721 246.666" stroke="#263238" stroke-miterlimit="10"/>
<path d="M14.6472 195.504C14.6472 216.887 25.946 236.046 43.7784 248.939C58.3252 259.464 77.2172 265.819 97.8711 265.819C143.832 265.819 181.089 234.338 181.089 195.504C181.089 156.669 143.832 125.188 97.8711 125.188C51.9108 125.188 14.6472 156.669 14.6472 195.504Z" fill="#4CB2E0" stroke="#263238" stroke-miterlimit="10"/>
<path d="M64.9715 153.027C64.9715 155.375 63.8303 157.278 62.4258 157.278C61.0213 157.278 59.8801 155.375 59.8801 153.027C59.8801 150.678 61.0213 148.775 62.4258 148.775C63.8303 148.775 64.9715 150.678 64.9715 153.027Z" fill="#263238" stroke="#263238" stroke-miterlimit="10"/>
<path d="M56.8454 152.305C56.8454 152.305 59.7046 146.458 64.2818 150.126" stroke="#263238" stroke-miterlimit="10"/>
<path d="M44.2612 153.259C44.2612 155.608 43.12 157.511 41.7155 157.511C40.311 157.511 39.1698 155.608 39.1698 153.259C39.1698 150.911 40.311 149.008 41.7155 149.008C43.12 149.008 44.2612 150.911 44.2612 153.259Z" fill="#263238" stroke="#263238" stroke-miterlimit="10"/>
<path d="M36.1413 152.537C36.1413 152.537 39.0005 146.691 43.5777 150.358" stroke="#263238" stroke-miterlimit="10"/>
<path d="M42.3488 202.964C42.3488 202.964 54.7449 203.247 58.6888 189.142L42.3488 202.964Z" fill="#4CB2E0"/>
<path d="M42.3488 202.964C42.3488 202.964 54.7449 203.247 58.6888 189.142" stroke="#263238" stroke-miterlimit="10"/>
<path d="M50.7884 163.866C46.8445 162.641 41.0007 161.04 35.3575 160.324L50.7884 163.866Z" fill="#4CB2E0"/>
<path d="M50.7884 163.866C46.8445 162.641 41.0007 161.04 35.3575 160.324" stroke="#263238" stroke-miterlimit="10"/>
<path d="M55.5726 165.467C55.5726 165.467 54.5819 165.097 52.9266 164.55L55.5726 165.467Z" fill="#4CB2E0"/>
<path d="M55.5726 165.467C55.5726 165.467 54.5819 165.097 52.9266 164.55" stroke="#263238" stroke-miterlimit="10"/>
<path d="M29.9401 229.704C34.3605 235.958 39.9598 241.554 46.4808 246.27C50.7947 249.391 55.5161 252.129 60.5636 254.415" stroke="#263238" stroke-miterlimit="10"/>
<path d="M20.9173 210.908C21.977 214.695 23.4128 218.356 25.1998 221.866L20.9173 210.908Z" fill="white"/>
<path d="M20.9173 210.908C21.977 214.695 23.4128 218.356 25.1998 221.866" stroke="#263238" stroke-miterlimit="10"/>
<path d="M164.517 159.57C161.902 156.11 158.918 152.87 155.613 149.887" stroke="#263238" stroke-miterlimit="10"/>
<path d="M168.48 225.571C173.878 216.535 176.919 206.318 176.919 195.504C176.919 184.69 173.872 174.46 168.467 165.417" stroke="#263238" stroke-miterlimit="10"/>
<path d="M60.5636 254.415C71.6743 259.445 84.3777 262.302 97.8649 262.302C113.296 262.302 127.692 258.566 139.862 252.11" stroke="#263238" stroke-miterlimit="10"/>
<path d="M80.7159 128.347C82.3713 128.931 83.6943 129.49 84.7351 130.005C85.5314 130.401 86.1773 130.765 86.6726 131.073C87.726 130.947 88.7857 130.834 89.8516 130.752C92.4851 130.52 95.1624 130.407 97.8649 130.407C110.016 130.407 121.541 132.718 131.899 136.863C133.705 137.585 135.467 138.364 137.204 139.199C133.893 135.72 130.188 133.189 127.228 131.512C118.124 128.454 108.223 126.771 97.8649 126.771C91.9834 126.771 86.2525 127.317 80.7159 128.347Z" fill="#808080" stroke="#263238" stroke-miterlimit="10"/>
<path d="M84.7351 130.005L89.8516 130.752C92.485 130.52 95.1624 130.407 97.8649 130.407C110.016 130.407 121.541 132.718 131.899 136.863C130.25 135.651 128.658 134.64 127.228 133.823C118.124 130.771 108.223 129.082 97.8649 129.082C93.4005 129.082 89.0176 129.402 84.7351 130.005Z" fill="#263238" stroke="#263238" stroke-miterlimit="10"/>
<path d="M29.0874 200.81C40.5219 200.81 49.7915 191.526 49.7915 180.074C49.7915 168.622 40.5219 159.338 29.0874 159.338C17.6528 159.338 8.38324 168.622 8.38324 180.074C8.38324 191.526 17.6528 200.81 29.0874 200.81Z" fill="#4CB2E0" stroke="#263238" stroke-miterlimit="10"/>
<path d="M35.0628 187.591C37.4696 187.591 39.4206 184.366 39.4206 180.388C39.4206 176.41 37.4696 173.185 35.0628 173.185C32.6561 173.185 30.7051 176.41 30.7051 180.388C30.7051 184.366 32.6561 187.591 35.0628 187.591Z" fill="#263238" stroke="#263238" stroke-miterlimit="10"/>
<path d="M19.4563 186.467C21.8631 186.467 23.8141 183.242 23.8141 179.264C23.8141 175.286 21.8631 172.061 19.4563 172.061C17.0496 172.061 15.0986 175.286 15.0986 179.264C15.0986 183.242 17.0496 186.467 19.4563 186.467Z" fill="#263238" stroke="#263238" stroke-miterlimit="10"/>
<path d="M130.213 247.871L134.175 265.379C135.411 270.824 140.239 274.686 145.813 274.686C151.387 274.686 156.221 270.824 157.45 265.379L164.429 234.564" fill="#4CB2E0"/>
<path d="M130.213 247.871L134.175 265.379C135.411 270.824 140.239 274.686 145.813 274.686C151.387 274.686 156.221 270.824 157.45 265.379L164.429 234.564" stroke="#263238" stroke-miterlimit="10"/>
<path d="M70.8906 247.871L74.8659 265.442C76.0885 270.849 80.8915 274.692 86.4281 274.692C92.021 274.692 96.8554 270.774 98.0216 265.298L101.991 246.666" fill="#4CB2E0"/>
<path d="M70.8906 247.871L74.8659 265.442C76.0885 270.849 80.8915 274.692 86.4281 274.692C92.021 274.692 96.8554 270.774 98.0216 265.298L101.991 246.666" stroke="#263238" stroke-miterlimit="10"/>
<path d="M105.565 156.437C105.565 156.437 103.47 130.426 85.6631 123.078C73.8062 118.186 68.9719 138.709 68.9719 138.709" fill="#4CB2E0"/>
<path d="M105.565 156.437C105.565 156.437 103.47 130.426 85.6631 123.078C73.8062 118.186 68.9719 138.709 68.9719 138.709" stroke="#263238" stroke-miterlimit="10"/>
<path d="M71.4487 142.596C71.4487 142.596 71.4173 142.584 71.3985 142.577L70.5583 141.748C70.5583 141.748 74.6151 122.689 83.362 128.536C90.7482 133.465 91.3502 154.063 91.3565 160.362C87.7887 153.385 80.7473 146.791 71.4487 142.602V142.596Z" fill="#263238" stroke="#263238" stroke-miterlimit="10"/>
<path d="M131.228 184.746C131.228 184.746 129.235 185.72 126.419 187.327C123.604 188.941 121.892 189.444 122.193 190.247C122.494 191.051 124.607 191.252 128.231 191.359C131.855 191.459 134.37 190.555 134.771 190.555C135.172 190.555 138.094 190.656 139.198 190.254C140.308 189.852 139.499 186.825 139.499 186.825C139.499 186.825 132.915 184.074 131.228 184.746Z" fill="white" stroke="#263238" stroke-linecap="round" stroke-linejoin="round"/>
<path d="M153.826 184.746C153.826 184.746 151.832 185.72 149.017 187.327C146.202 188.941 144.49 189.444 144.791 190.247C145.092 191.051 147.205 191.252 150.829 191.359C154.453 191.459 156.968 190.555 157.369 190.555C157.77 190.555 160.692 190.656 161.796 190.254C162.905 189.852 162.097 186.825 162.097 186.825C162.097 186.825 155.513 184.074 153.826 184.746Z" fill="white" stroke="#263238" stroke-linecap="round" stroke-linejoin="round"/>
<path d="M164.253 109.068C164.253 109.068 166.793 114.626 166.655 120.19C166.517 125.754 160.962 148.298 161.238 151.08C161.513 153.862 164.015 156.091 163.739 162.767C163.463 169.442 161.658 179.76 161.658 179.76C161.658 179.76 162.717 183.157 162.435 184.131C162.159 185.104 162.303 187.635 162.303 187.635C162.303 187.635 160.473 186.291 158.805 186.291C157.137 186.291 152.754 185.362 152.754 184.947C152.754 184.533 154.296 180.602 154.296 180.602L154.434 177.399C154.434 177.399 151.795 154.835 151.237 150.245C150.679 145.654 148.597 123.807 148.597 123.807C148.597 123.807 143.875 151.356 143.737 152.33C143.6 153.303 144.433 159.005 142.904 163.181C141.374 167.357 140.402 177.512 140.402 179.735C140.402 181.958 139.844 187.805 139.844 187.805C139.844 187.805 137.066 187.805 135.536 187.108C134.006 186.41 132.896 185.299 132.482 185.161C132.069 185.023 131.235 184.746 131.235 184.746C131.235 184.746 131.373 183.635 131.649 182.661C131.924 181.688 133.041 179.741 133.041 179.741L133.454 161.096C133.454 161.096 133.178 150.804 133.454 149.133C133.73 147.463 133.592 145.793 133.592 145.24C133.592 144.687 133.592 123.951 134.288 119.499C134.984 115.046 135.179 109.294 135.179 109.294L162.354 106.148L164.26 109.081L164.253 109.068Z" fill="#263238" stroke="#263238" stroke-linecap="round" stroke-linejoin="round"/>
<path d="M162.937 104.798L164.247 109.068C164.247 109.068 155.362 114.99 146.835 115.429C138.308 115.869 135.574 113.803 134.922 113.257C134.27 112.71 135.172 109.288 135.172 109.288C135.172 109.288 144.684 110.274 149.6 109.068C154.516 107.862 162.937 104.798 162.937 104.798Z" fill="#4CB2E0" stroke="#263238" stroke-linecap="round" stroke-linejoin="round"/>
<path d="M151.713 64.4686C151.713 64.4686 160.974 66.9617 161.57 67.9602C162.166 68.9587 159.256 90.869 158.836 92.5457C158.416 94.2224 159.676 99.4724 160.51 100.628C161.35 101.783 163.758 103.039 163.758 105.036C163.758 107.033 150.24 111.963 145.418 111.963C140.596 111.963 135.229 111.153 134.702 110.632C134.175 110.104 134.621 108.289 134.621 107.868C134.621 107.448 134.727 95.5852 134.727 95.5852C134.727 95.5852 132 92.3322 131.373 88.445C130.746 84.5578 131.598 79.6218 131.598 79.6218C131.598 79.6218 130.802 72.5382 131.498 69.8504C132.194 67.1564 137.474 65.2599 137.474 65.2599C137.474 65.2599 142.653 63.0682 151.713 64.4623V64.4686Z" fill="#4CB2E0" stroke="#263238" stroke-linecap="round" stroke-linejoin="round"/>
<path d="M144.045 94.1786C143.123 93.7138 141.982 92.9854 140.69 91.8362" stroke="#263238" stroke-linecap="round" stroke-linejoin="round"/>
<path d="M146.484 94.976C146.484 94.976 146.051 94.9572 145.286 94.6997" stroke="#263238" stroke-linecap="round" stroke-linejoin="round"/>
<path d="M135.705 64.4875C135.705 64.4875 134.69 67.3951 135.436 68.7453C136.176 70.0954 139.016 70.3027 139.016 70.3027C139.016 70.3027 138.746 69.4926 139.355 68.0043C139.963 66.5159 140.972 64.1484 140.972 64.1484L135.705 64.4875Z" fill="#263238" stroke="#263238" stroke-linecap="round" stroke-linejoin="round"/>
<path d="M129.021 55.0175C129.021 55.0175 129.159 57.3159 129.561 57.856C129.968 58.396 131.116 57.856 131.316 59.3443C131.517 60.8326 131.586 63.332 132.125 63.5392C132.664 63.7402 134.15 63.4701 134.15 63.4701C134.15 63.4701 136.646 65.7685 137.392 66.1077C138.132 66.4468 138.339 66.5158 138.878 66.1077C139.417 65.6995 140.834 64.6193 140.834 64.6193C140.834 64.6193 139.756 67.7278 140.157 68.6761C140.565 69.6244 142.051 71.1755 143.737 69.6244C145.424 68.0732 146.44 64.5503 146.44 64.5503L141.982 51.9027L129.761 48.9951C129.761 48.9951 128.413 54.0692 129.021 55.0112V55.0175Z" fill="white" stroke="#263238" stroke-linecap="round" stroke-linejoin="round"/>
<path d="M141.38 54.0065C141.38 54.0065 143.543 63.5392 144.082 67.125C144.622 70.7108 143.675 72.1301 143.675 72.1301C143.675 72.1301 149.08 71.7909 150.967 68.4752C152.854 65.1594 154.478 63.3383 153.4 60.1544C152.321 56.9768 149.349 46.8977 146.515 43.4501C143.681 40.0024 137.398 39.1923 135.034 39.5943C132.671 40.0024 129.968 43.111 128.752 45.4094C127.535 47.7078 126.726 52.3046 125.918 52.7819C125.109 53.2592 124.363 54.4021 125.579 54.7412C126.795 55.0803 129.021 55.0112 129.021 55.0112C129.021 55.0112 129.159 52.8447 129.492 51.8336C129.83 50.8163 130.1 50.2134 130.1 50.2134C130.1 50.2134 130.507 51.3627 135.028 52.7128C139.555 54.063 141.242 53.391 141.242 53.391L141.38 54.0002V54.0065Z" fill="#263238" stroke="#263238" stroke-linecap="round" stroke-linejoin="round"/>
<path d="M130.1 50.2197C130.1 50.2197 134.351 56.0348 141.712 54.7538" stroke="#263238" stroke-linecap="round" stroke-linejoin="round"/>
<path d="M131.924 56.983C131.924 56.983 132.94 55.3628 134.627 56.0348" stroke="#263238" stroke-linecap="round" stroke-linejoin="round"/>
<path d="M137.191 61.1089C137.191 61.1089 137.329 62.1262 136.514 62.7291" stroke="#263238" stroke-linecap="round" stroke-linejoin="round"/>
<path d="M133.573 58.7101C133.737 59.1686 134.088 59.4574 134.351 59.3632C134.614 59.269 134.696 58.8232 134.527 58.3647C134.364 57.9063 134.012 57.6174 133.749 57.7116C133.486 57.8058 133.404 58.2517 133.573 58.7101Z" fill="#263238"/>
<path d="M140.841 64.6255L142.527 62.8672L141.38 67.8031L140.841 64.6255Z" fill="#263238" stroke="#263238" stroke-linecap="round" stroke-linejoin="round"/>
<path d="M105 81.4556C105 81.4556 104.292 80.9532 103.891 80.2436C103.489 79.534 102.881 80.6455 102.981 81.3551C103.082 82.0648 103.79 83.0695 103.79 83.0695L105 81.4556Z" fill="white" stroke="#263238" stroke-linecap="round" stroke-linejoin="round"/>
<path d="M146.294 105.288C148.59 91.3115 139.137 78.1177 125.182 75.8189C111.227 73.5202 98.0538 82.9869 95.7586 96.9635C93.4633 110.94 102.915 124.134 116.871 126.433C130.826 128.731 143.999 119.265 146.294 105.288Z" fill="#858585" stroke="#263238" stroke-linecap="round" stroke-linejoin="round"/>
<path d="M143.131 104.18C145.135 91.9477 136.859 80.4044 124.646 78.397C112.433 76.3896 100.907 84.6781 98.9031 96.91C96.8988 109.142 105.175 120.685 117.388 122.693C129.601 124.7 141.126 116.412 143.131 104.18Z" fill="white" stroke="#263238" stroke-linecap="round" stroke-linejoin="round"/>
<path d="M127.235 96.8629L126.566 99.3413H114L114.682 96.8629H127.235ZM120.978 111.505L114.388 103.709L114.374 101.565H117.556C118.331 101.565 118.969 101.422 119.468 101.136C119.976 100.842 120.354 100.444 120.604 99.9441C120.862 99.444 120.992 98.8813 120.992 98.2562C120.992 97.6042 120.876 97.0282 120.644 96.528C120.412 96.019 120.042 95.6215 119.534 95.3357C119.026 95.0499 118.354 94.907 117.516 94.907H114.013L114.775 92H117.516C119.102 92 120.421 92.2411 121.473 92.7234C122.533 93.1968 123.327 93.8889 123.852 94.7999C124.387 95.7019 124.654 96.7915 124.654 98.0686C124.654 99.185 124.467 100.172 124.093 101.029C123.728 101.878 123.135 102.57 122.315 103.106C121.495 103.642 120.417 103.999 119.08 104.177L125.055 111.318V111.505H120.978ZM127.248 92L126.566 94.4784H116.232L116.914 92H127.248Z" fill="#263238"/>
<path d="M155.996 66.5662C155.996 66.5662 161.67 66.9681 162.767 67.7656C163.865 68.5632 171.207 90.4546 171.627 93.2868C172.047 96.119 171.101 96.4393 170.58 96.4393C170.06 96.4393 157.795 100.427 156.322 100.741C154.855 101.055 154.541 100.848 154.014 100.427C153.488 100.006 150.973 96.9605 151.707 95.1771C152.44 93.3936 153.701 93.0796 153.701 93.0796L161.664 90.1406L155.394 78.9374" fill="#4CB2E0"/>
<path d="M155.996 66.5662C155.996 66.5662 161.67 66.9681 162.767 67.7656C163.865 68.5632 171.207 90.4546 171.627 93.2868C172.047 96.119 171.101 96.4393 170.58 96.4393C170.06 96.4393 157.795 100.427 156.322 100.741C154.855 101.055 154.541 100.848 154.014 100.427C153.488 100.006 150.973 96.9605 151.707 95.1771C152.44 93.3936 153.701 93.0796 153.701 93.0796L161.664 90.1406L155.394 78.9374" stroke="#263238" stroke-linecap="round" stroke-linejoin="round"/>
<path d="M165.426 91.3714C165.426 91.3714 163.733 90.1531 161.67 90.1343" stroke="#263238" stroke-linecap="round" stroke-linejoin="round"/>
<path d="M164.285 89.657C164.285 89.657 166.454 90.3415 167.708 91.7168" stroke="#263238" stroke-linecap="round" stroke-linejoin="round"/>
<path d="M147.619 96.7471C147.619 96.7471 151.18 95.5916 151.707 95.1709C152.234 94.7502 153.381 95.0641 154.014 96.5336C154.641 98.0031 154.014 100.421 154.014 100.421L149.82 101.47C149.82 101.47 148.772 101.677 147.725 99.8933C146.678 98.1099 146.465 96.8476 147.619 96.7409V96.7471Z" fill="#4CB2E0" stroke="#263238" stroke-linecap="round" stroke-linejoin="round"/>
<path d="M149.08 97.0484C149.08 97.0484 146.264 96.6842 145.901 96.5963C145.537 96.5084 144.446 95.3215 143.995 94.9572C143.543 94.593 142.082 95.1268 140.991 93.852C139.9 92.5772 139.449 93.9399 139.536 94.6684C139.624 95.3968 140.627 95.7611 141.261 96.1253C141.894 96.4895 142.446 97.5006 142.446 97.5006C142.446 97.5006 140.358 99.1396 139.267 99.4096C138.176 99.6797 135.273 100.32 135.185 100.684C135.097 101.049 135.455 101.137 135.912 101.137C136.37 101.137 139.273 100.954 139.273 100.954L141.361 100.59L138.094 102.135C138.094 102.135 135.461 102.499 135.461 102.864C135.461 103.228 135.912 103.41 136.458 103.316C137.003 103.228 139.091 103.404 139.819 103.134C140.546 102.864 142.277 102.367 142.277 102.367C142.277 102.367 139.273 104.408 138.909 104.496C138.546 104.584 136.916 104.766 137.273 105.131C137.637 105.495 138.27 105.859 139.179 105.495C140.088 105.131 141.718 104.496 141.718 104.496C141.718 104.496 141.355 105.225 140.991 105.495C140.627 105.765 140.446 106.223 140.903 106.223C141.361 106.223 142.897 105.131 143.537 104.584C144.17 104.038 145.355 102.493 145.355 102.493L147.895 101.218L149.167 100.672C149.167 100.672 150.077 98.9449 149.08 97.0359V97.0484Z" fill="white" stroke="#263238" stroke-linecap="round" stroke-linejoin="round"/>
<path d="M141.725 104.503C141.725 104.503 142.697 104.314 143.117 103.724" stroke="#263238" stroke-linecap="round" stroke-linejoin="round"/>
<path d="M101.47 81.6628C101.47 81.6628 99.9591 82.5734 100.561 83.484C101.169 84.3946 102.981 85.7071 103.082 84.9974C103.182 84.2878 102.58 83.484 102.373 82.6739C102.172 81.8638 101.765 81.1605 101.464 81.6628H101.47Z" fill="white" stroke="#263238" stroke-linecap="round" stroke-linejoin="round"/>
<path d="M98.6863 85.7887C98.8869 86.9002 101.408 87.3021 101.614 87.0007C101.671 86.9128 101.665 86.7683 101.621 86.6051C101.47 86.021 100.987 85.5877 100.411 85.437C99.6268 85.2298 98.5609 85.0728 98.6863 85.7887Z" fill="white" stroke="#263238" stroke-linecap="round" stroke-linejoin="round"/>
<path d="M98.1909 87.3649C98.3916 88.4764 100.454 88.4199 100.661 88.1184C100.718 88.0305 101.169 88.3445 101.125 88.1812C100.975 87.5972 100.492 87.1639 99.9152 87.0132C99.1314 86.806 98.0655 86.649 98.1909 87.3649Z" fill="white" stroke="#263238" stroke-linecap="round" stroke-linejoin="round"/>
<path d="M100.561 83.4778C100.561 83.4778 99.4512 84.2879 99.6518 84.7903C99.8525 85.2927 101.063 86.1028 101.571 86.4042C102.072 86.7056 102.781 86.5047 102.48 85.9018C102.179 85.2989 101.671 84.5893 101.671 84.5893L100.561 83.4778Z" fill="white" stroke="#263238" stroke-linecap="round" stroke-linejoin="round"/>
<path d="M268.119 251.086V236.662H247.822V222.243H227.532V207.818H209.311V190.48H154.265V274.648L288.415 274.686V251.086H268.119Z" fill="#263238" stroke="#263238" stroke-linecap="round" stroke-linejoin="round"/>
<path d="M227.287 251.086V236.662H206.991V222.243H186.694V207.818H168.48V190.48H113.434V274.648L247.578 274.686V251.086H227.287Z" fill="#C4C4C4" stroke="#263238" stroke-linecap="round" stroke-linejoin="round"/>
<path d="M227.526 207.818H186.694V222.237H227.526V207.818Z" fill="#263238" stroke="#263238" stroke-linecap="round" stroke-linejoin="round"/>
<path d="M247.898 222.287H207.066V236.706H247.898V222.287Z" fill="#263238" stroke="#263238" stroke-linecap="round" stroke-linejoin="round"/>
<path d="M268.094 236.599H227.262V251.017H268.094V236.599Z" fill="#263238" stroke="#263238" stroke-linecap="round" stroke-linejoin="round"/>
<path d="M14.5092 274.686H299.495" stroke="#263238" stroke-miterlimit="10"/>
<path d="M250.617 82.9819C264.722 81.9421 275.314 69.6476 274.276 55.5215C273.237 41.3954 260.962 30.7868 246.858 31.8267C232.753 32.8665 222.161 45.161 223.199 59.2871C224.237 73.4132 236.513 84.0218 250.617 82.9819Z" fill="#858585" stroke="#263238" stroke-linecap="round" stroke-linejoin="round"/>
<path d="M250.612 80.1559C262.963 79.3603 272.331 68.6875 271.537 56.3175C270.743 43.9475 260.086 34.5646 247.735 35.3602C235.384 36.1558 226.016 46.8286 226.81 59.1986C227.604 71.5686 238.261 80.9515 250.612 80.1559Z" fill="white" stroke="#263238" stroke-linecap="round" stroke-linejoin="round"/>
<path d="M243.54 67.9979L249.17 57.768L229.814 55.1431" stroke="#263238" stroke-linecap="round" stroke-linejoin="round"/>
<path d="M250.067 56.7131C249.484 56.217 248.612 56.286 248.117 56.8701C247.622 57.4541 247.691 58.327 248.274 58.8231C248.857 59.3192 249.728 59.2501 250.224 58.6661C250.719 58.0821 250.65 57.2092 250.067 56.7131Z" fill="#858585" stroke="#263238" stroke-linecap="round" stroke-linejoin="round"/>
</g>
<defs>
<clipPath id="clip0_11_4193">
<rect width="305" height="275" fill="white"/>
</clipPath>
</defs>
</svg>
