<svg width="266" height="283" viewBox="0 0 266 283" fill="none" xmlns="http://www.w3.org/2000/svg">
<g clip-path="url(#clip0_11_4717)">
<path d="M98.3385 2.27117C77.3684 5.72728 57.2641 13.3246 40.1838 26.464C15.3364 45.5775 1.55837 74.1521 0.117495 105.232C-0.828662 125.747 4.07528 145.749 10.0058 165.227C17.6307 190.284 22.5532 218.827 38.4771 240.243C63.2688 273.582 111.195 287.629 151.268 281.661C177.16 277.803 204.518 263.127 212.483 236.608C215.433 226.789 216.868 216.235 221.908 207.163C227.95 196.289 238.902 189.938 247.219 181.082C257.491 170.146 261.634 156.519 264.194 142.102C269.797 110.559 262.147 77.133 243.676 50.9653C224.406 23.6559 195.811 9.01059 163.345 3.24012C159.783 2.60444 156.202 2.07368 152.61 1.62315C134.781 -0.604807 116.241 -0.678867 98.3385 2.265V2.27117Z" fill="#4CB2E0"/>
<path opacity="0.7" d="M98.3385 2.27117C77.3684 5.72728 57.2641 13.3246 40.1838 26.464C15.3364 45.5775 1.55837 74.1521 0.117495 105.232C-0.828662 125.747 4.07528 145.749 10.0058 165.227C17.6307 190.284 22.5532 218.827 38.4771 240.243C63.2688 273.582 111.195 287.629 151.268 281.661C177.16 277.803 204.518 263.127 212.483 236.608C215.433 226.789 216.868 216.235 221.908 207.163C227.95 196.289 238.902 189.938 247.219 181.082C257.491 170.146 261.634 156.519 264.194 142.102C269.797 110.559 262.147 77.133 243.676 50.9653C224.406 23.6559 195.811 9.01059 163.345 3.24012C159.783 2.60444 156.202 2.07368 152.61 1.62315C134.781 -0.604807 116.241 -0.678867 98.3385 2.265V2.27117Z" fill="white"/>
<path opacity="0.2" d="M102.871 223.37L154.619 213.736C154.619 213.736 166.332 250.617 168.694 255.388L167.445 258.283L168.224 263.127L116.81 274.804L112.685 271.558L102.871 223.37Z" fill="black"/>
<path d="M150.885 209.786L100.836 221.612L112.686 271.56L162.735 259.735L150.885 209.786Z" fill="#4CB2E0"/>
<mask id="mask0_11_4717" style="mask-type:luminance" maskUnits="userSpaceOnUse" x="100" y="209" width="63" height="63">
<path d="M150.885 209.786L100.836 221.612L112.686 271.56L162.735 259.735L150.885 209.786Z" fill="white"/>
</mask>
<g mask="url(#mask0_11_4717)">
<path opacity="0.2" d="M154.081 223.259L162.387 258.258L114.658 269.533C108.907 255.172 104.51 237.089 104.51 237.089L154.081 223.259Z" fill="black"/>
</g>
<path d="M150.885 209.786L100.836 221.612L112.686 271.56L162.735 259.735L150.885 209.786Z" stroke="#263238" stroke-linecap="round" stroke-linejoin="round"/>
<path d="M164.297 256.548C151.793 259.505 134.076 262.282 123.39 263.849C117.8 264.664 114.126 265.145 114.126 265.145C109.389 256.48 100.843 221.611 100.843 221.611L150.89 209.786C150.983 210.212 151.076 210.638 151.169 211.057C157.142 238.046 164.297 256.548 164.297 256.548Z" fill="white"/>
<mask id="mask1_11_4717" style="mask-type:luminance" maskUnits="userSpaceOnUse" x="100" y="209" width="65" height="57">
<path d="M164.297 256.548C151.793 259.505 134.076 262.282 123.39 263.849C117.8 264.664 114.126 265.145 114.126 265.145C109.389 256.48 100.843 221.611 100.843 221.611L150.89 209.786C150.983 210.212 151.076 210.638 151.169 211.057C157.142 238.046 164.297 256.548 164.297 256.548Z" fill="white"/>
</mask>
<g mask="url(#mask1_11_4717)">
<path opacity="0.4" d="M164.297 256.548C151.793 259.504 134.076 262.282 123.39 263.849C115.363 258.523 113.428 253.302 113.526 248.321C113.638 242.403 139.444 248.186 144.836 242.329C148.683 238.151 148.571 220.413 151.169 211.057C157.142 238.046 164.297 256.548 164.297 256.548Z" fill="#4CB2E0"/>
</g>
<path d="M164.297 256.548C151.793 259.505 134.076 262.282 123.39 263.849C117.8 264.664 114.126 265.145 114.126 265.145C109.389 256.48 100.843 221.611 100.843 221.611L150.89 209.786C150.983 210.212 151.076 210.638 151.169 211.057C157.142 238.046 164.297 256.548 164.297 256.548Z" stroke="#263238" stroke-linecap="round" stroke-linejoin="round"/>
<path d="M109.284 229.165C109.964 228.381 110.781 227.714 111.69 227.208C111.937 227.844 112.185 228.474 112.432 229.109C113.298 228.794 114.163 228.48 115.023 228.171C115.889 227.856 116.847 227.455 117.181 226.597C117.657 227.727 119.296 227.535 120.465 227.159C128.554 224.561 136.828 222.53 145.201 221.092" stroke="#263238" stroke-linecap="round" stroke-linejoin="round"/>
<path d="M110.54 236.077C110.002 235.799 110.447 234.836 111.053 234.88C111.659 234.923 112.048 235.583 112.098 236.188C112.624 236.133 113.087 235.707 113.193 235.182C113.477 235.38 113.761 235.577 114.052 235.781C113.755 235.355 113.904 234.695 114.349 234.435C114.794 234.176 115.45 234.374 115.672 234.836C115.611 234.139 115.883 233.121 116.569 233.287C116.792 233.343 116.959 233.528 117.15 233.664C117.967 234.25 119.315 233.689 119.476 232.701C120.15 233.466 121.355 233.361 122.363 233.189C125.363 232.676 128.368 232.17 131.367 231.658C131.448 231.09 131.738 230.362 132.301 230.436C132.629 230.479 132.845 230.8 133.136 230.967C133.544 231.201 134.057 231.115 134.515 231.016C138.566 230.14 142.554 228.949 146.419 227.443" stroke="#263238" stroke-linecap="round" stroke-linejoin="round"/>
<path d="M113.644 243.958C114.844 244.063 116.068 243.897 117.194 243.471C116.767 242.644 117.027 241.527 117.775 240.971C118.14 241.206 118.498 241.434 118.863 241.669C123.242 241.57 127.601 240.971 131.844 239.885C133.748 239.397 135.622 238.811 137.502 238.231C141.058 237.126 144.62 236.015 148.176 234.911" stroke="#263238" stroke-linecap="round" stroke-linejoin="round"/>
<path opacity="0.2" d="M196.349 25.1679L195.354 25.2296C194.346 25.2913 193.517 24.7482 193.27 23.8225C191.754 18.2988 186.201 15.1945 179.764 15.5957C173.957 15.9536 167.847 19.6072 164.304 24.6556C163.345 26.0196 161.879 26.9576 160.395 27.0502L155.454 27.3588C153.97 27.4514 152.77 26.6799 152.232 25.4086C150.235 20.7058 145.17 17.7434 139.363 18.1014C132.926 18.5025 126.272 22.3598 122.963 28.1796C122.413 29.1547 121.393 29.8151 120.385 29.8768L119.389 29.9385C118.938 29.9694 118.511 30.3644 118.437 30.8334L118.047 33.3144C117.985 33.6971 118.183 34.018 118.529 34.092L119.735 34.45C120.681 34.7339 121.275 35.5856 121.219 36.6533C120.793 44.5591 126.383 50.3666 134.348 49.8791C142.029 49.4039 149.326 43.2261 151.713 35.5979C152.096 34.3636 153.191 33.3391 154.415 33.0305C155.856 32.6726 157.711 32.4072 159.628 32.6664C160.791 32.8207 161.607 33.7279 161.601 34.9561C161.583 42.4484 167.062 47.8548 174.748 47.3796C182.707 46.8858 190.264 40.2637 192.354 32.2529C192.639 31.1667 193.517 30.2224 194.568 29.8213L195.91 29.3029C196.287 29.1856 196.59 28.8338 196.652 28.4512L197.042 25.9702C197.116 25.5073 196.807 25.1494 196.355 25.1802L196.349 25.1679ZM134.663 47.7745C127.267 48.2312 122.227 42.4176 123.427 34.8141C124.627 27.2107 131.627 20.6502 139.023 20.1935C146.419 19.7368 151.459 25.5505 150.26 33.154C149.06 40.7574 142.06 47.3178 134.663 47.7745ZM152.467 31.5555C152.498 31.1235 152.511 30.6976 152.504 30.278C152.504 29.9324 152.82 29.5991 153.166 29.5744L162.022 29.0251C162.368 29.0066 162.584 29.3029 162.473 29.6608C162.337 30.0867 162.213 30.5125 162.102 30.9445C158.293 29.8274 154.49 30.8149 152.474 31.5555H152.467ZM175.064 45.275C167.668 45.7317 162.628 39.9181 163.827 32.3146C165.027 24.7112 172.027 18.1507 179.424 17.694C186.82 17.2373 191.86 23.051 190.66 30.6544C189.46 38.2579 182.46 44.8183 175.064 45.275Z" fill="black"/>
<path d="M189.998 26.7231L133.254 34.2278C130.545 34.5858 128.115 36.0732 126.562 38.3196L118.257 50.3728C117.93 50.848 118.134 51.5084 118.678 51.7182C119.822 52.1564 121.12 51.7553 121.813 50.7493L129.494 39.6157C130.421 38.2764 131.868 37.3815 133.482 37.1532L190.208 29.1301L189.998 26.7231Z" fill="#263238"/>
<path d="M113.446 31.4692L170.673 30.5249C173.406 30.4817 176.029 31.5926 177.896 33.586L187.896 44.2876C188.291 44.7135 188.186 45.3923 187.679 45.6824C186.609 46.2872 185.267 46.0774 184.433 45.1825L175.187 35.3017C174.074 34.1106 172.51 33.4379 170.877 33.4502L113.588 33.8823L113.44 31.4692H113.446Z" fill="#263238"/>
<path d="M148.132 35.1044C148.837 35.2401 148.806 40.0231 147.211 41.6648C145.622 43.3064 143.977 39.3381 144.397 37.9186C144.818 36.4991 145.925 34.6847 148.132 35.0982V35.1044Z" fill="#4CB2E0" stroke="#263238" stroke-linecap="round" stroke-linejoin="round"/>
<path d="M158.076 34.4871C157.396 34.7031 158.021 39.4553 159.802 40.8871C161.583 42.3189 162.72 38.1777 162.133 36.8261C161.545 35.4746 160.216 33.8021 158.076 34.4871Z" fill="#4CB2E0" stroke="#263238" stroke-linecap="round" stroke-linejoin="round"/>
<path opacity="0.5" d="M122.623 23.8595C125.616 21.3044 131.955 16.9534 138.893 21.0884C145.832 25.2296 148.231 29.7163 146.803 35.8201C145.374 41.9238 141.008 50.058 130.718 48.6385C120.428 47.2191 113.329 31.79 122.623 23.8595Z" fill="#4CB2E0"/>
<path opacity="0.5" d="M163.085 21.8846C166.078 19.3295 172.417 14.9785 179.356 19.1135C186.294 23.2547 188.693 27.7415 187.265 33.8452C185.836 39.949 181.47 48.0832 171.18 46.6637C160.89 45.2442 153.791 29.8151 163.085 21.8846Z" fill="#4CB2E0"/>
<path d="M191.179 25.8405L190.184 25.9022C189.176 25.964 188.217 25.4394 187.76 24.5383C185.008 19.1813 178.694 16.1758 172.25 16.5769C166.443 16.9349 161.057 20.4897 158.577 25.3962C157.909 26.7231 156.629 27.6303 155.145 27.7229L150.204 28.0314C148.72 28.124 147.335 27.3773 146.506 26.1429C143.439 21.5821 137.657 18.7123 131.85 19.0764C125.412 19.4776 119.519 23.2299 117.447 28.8893C117.101 29.8336 116.217 30.4754 115.209 30.5371L114.213 30.5988C113.761 30.6297 113.415 31.0123 113.446 31.469L113.595 33.8822C113.619 34.2524 113.891 34.561 114.256 34.6351L115.555 34.9807C116.575 35.2523 117.367 36.0793 117.546 37.1161C118.857 44.7936 125.808 50.4221 133.767 49.9284C141.447 49.4532 147.483 43.442 148.219 36.036C148.336 34.8388 149.221 33.8389 150.39 33.5427C151.775 33.1909 153.593 32.9317 155.596 33.1786C156.809 33.3267 157.835 34.2092 158.101 35.4004C159.734 42.6767 166.48 47.9103 174.167 47.435C182.126 46.9413 188.322 40.4981 188.681 32.7219C188.73 31.6665 189.411 30.7531 190.388 30.352L191.637 29.8459C191.989 29.7286 192.224 29.3892 192.2 29.0189L192.051 26.6058C192.02 26.1553 191.637 25.8097 191.179 25.8405ZM133.643 47.8917C126.247 48.3484 119.853 42.7138 119.395 35.3325C118.938 27.9512 124.584 21.5698 131.98 21.1131C139.376 20.6564 145.77 26.291 146.228 33.6723C146.685 41.0536 141.039 47.435 133.643 47.8917ZM148.108 32.1171C148.04 31.6974 147.959 31.2839 147.86 30.8766C147.78 30.5433 148.027 30.2162 148.374 30.1915L157.229 29.6422C157.575 29.6237 157.866 29.9138 157.823 30.2594C157.773 30.6729 157.742 31.0864 157.73 31.5061C153.624 30.426 149.988 31.395 148.101 32.1171H148.108ZM174.043 45.3922C166.647 45.8489 160.253 40.2142 159.795 32.833C159.338 25.4517 164.984 19.0702 172.38 18.6135C179.776 18.1568 186.17 23.7915 186.628 31.1728C187.086 38.5541 181.44 44.9355 174.043 45.3922Z" fill="#757575" stroke="#263238" stroke-linecap="round" stroke-linejoin="round"/>
<path opacity="0.4" d="M123.724 43.1458C123.724 43.1458 118.771 36.6162 122.265 29.0251C125.412 22.1931 132.79 21.4155 136.265 22.8844L128.64 36.1348C129.654 31.1852 131.794 26.7231 131.794 26.7231C131.794 26.7231 125.072 33.5057 123.724 43.1458Z" fill="white"/>
<path opacity="0.4" d="M164.031 40.2637C164.031 40.2637 159.078 33.7342 162.572 26.1431C165.72 19.3111 173.097 18.5334 176.573 20.0023L168.948 33.2528C169.523 28.4883 172.102 23.841 172.102 23.841C172.102 23.841 165.38 30.6237 164.031 40.2637Z" fill="white"/>
<path opacity="0.2" d="M18.9664 155.593L20.7598 163.634L22.8067 154.537L17.4266 63.6047H13.7595L18.9664 155.593Z" fill="black"/>
<path d="M15.6889 62.5L20.7598 153.964L18.8922 161.487L16.2022 154.217L11.1313 62.753C11.0941 62.1173 11.5827 61.5804 12.2135 61.5434L14.4706 61.4199C15.1076 61.3829 15.6456 61.8705 15.6827 62.5H15.6889Z" fill="#4CB2E0"/>
<mask id="mask2_11_4717" style="mask-type:luminance" maskUnits="userSpaceOnUse" x="11" y="61" width="10" height="101">
<path d="M15.6889 62.5L20.7598 153.964L18.8922 161.487L16.2022 154.217L11.1313 62.753C11.0941 62.1173 11.5827 61.5804 12.2135 61.5434L14.4706 61.4199C15.1076 61.3829 15.6456 61.8705 15.6827 62.5H15.6889Z" fill="white"/>
</mask>
<g mask="url(#mask2_11_4717)">
<path opacity="0.2" d="M18.8922 161.487L16.2022 154.217L11.1313 62.7531C11.0941 62.1174 11.5827 61.5804 12.2135 61.5434L12.5288 61.5249L17.6369 153.661L18.886 161.487H18.8922Z" fill="black"/>
</g>
<path d="M15.6889 62.5L20.7598 153.964L18.8922 161.487L16.2022 154.217L11.1313 62.753C11.0941 62.1173 11.5827 61.5804 12.2135 61.5434L14.4706 61.4199C15.1076 61.3829 15.6456 61.8705 15.6827 62.5H15.6889Z" stroke="#263238" stroke-linecap="round" stroke-linejoin="round"/>
<path d="M12.6216 63.0925L17.5998 152.884C17.6245 153.316 17.9894 153.643 18.4222 153.618L18.9664 153.587" fill="#4CB2E0"/>
<path d="M12.6216 63.0925L17.5998 152.884C17.6245 153.316 17.9894 153.643 18.4222 153.618L18.9664 153.587" stroke="#263238" stroke-linecap="round" stroke-linejoin="round"/>
<path opacity="0.2" d="M35.1377 172.639L51.9026 63.3209C52.9786 56.3223 59.5337 51.5146 66.5464 52.5885L227.523 77.1762C234.536 78.2501 239.353 84.792 238.277 91.7906L221.512 201.109C220.436 208.107 213.881 212.915 206.868 211.841L45.8917 187.253C38.879 186.18 34.0616 179.638 35.1377 172.639Z" fill="black"/>
<path d="M48.0541 67.4417L49.3272 59.1388C49.3786 58.8032 49.6887 58.5759 50.025 58.6272L53.5337 59.1631L52.0755 68.6739L48.5667 68.1381C48.2305 68.0867 48.0026 67.7772 48.0541 67.4417Z" fill="#4CB2E0" stroke="#263238" stroke-linecap="round" stroke-linejoin="round"/>
<path d="M69.8575 49.9498L78.1771 51.2204C78.5133 51.2717 78.7411 51.5812 78.6897 51.9167L78.1527 55.4185L68.6228 53.9631L69.1597 50.4614C69.2111 50.1258 69.5213 49.8985 69.8575 49.9498Z" fill="#4CB2E0" stroke="#263238" stroke-linecap="round" stroke-linejoin="round"/>
<path d="M81.19 51.6781L89.5097 52.9486C89.8459 53 90.0737 53.3095 90.0222 53.645L89.4853 57.1468L79.9553 55.6914L80.4923 52.1897C80.5437 51.8541 80.8538 51.6268 81.19 51.6781Z" fill="#4CB2E0" stroke="#263238" stroke-linecap="round" stroke-linejoin="round"/>
<path d="M33.2825 170.17L50.0474 60.8524C51.1234 53.8538 57.6785 49.0461 64.6912 50.12L225.668 74.7077C232.68 75.7816 237.498 82.3235 236.422 89.3221L219.657 198.64C218.581 205.639 212.026 210.447 205.013 209.373L44.0365 184.785C37.0238 183.711 32.2064 177.169 33.2825 170.17Z" fill="#4CB2E0" stroke="#263238" stroke-linecap="round" stroke-linejoin="round"/>
<path d="M205.65 208.027L43.8386 183.31C37.8401 182.39 33.7153 176.793 34.6368 170.806L51.5315 60.6549C52.453 54.6684 58.0619 50.5519 64.0604 51.4715L225.872 76.1888C231.87 77.1084 235.995 82.7061 235.074 88.6926L218.179 198.844C217.257 204.83 211.649 208.947 205.65 208.027Z" fill="#757575" stroke="#263238" stroke-linecap="round" stroke-linejoin="round"/>
<path d="M45.7989 116.144C45.7433 116.49 45.4217 116.724 45.0816 116.669C44.7353 116.613 44.5003 116.292 44.5559 115.953C44.6116 115.607 44.9332 115.373 45.2733 115.428C45.6196 115.484 45.8546 115.805 45.7989 116.144Z" fill="#999999" stroke="#263238" stroke-linecap="round" stroke-linejoin="round"/>
<path d="M45.5021 121.89C45.4032 122.544 44.7848 122.995 44.1293 122.896C43.4737 122.797 43.0223 122.18 43.1213 121.526C43.2202 120.871 43.8386 120.421 44.4941 120.52C45.1496 120.618 45.6011 121.236 45.5021 121.89Z" fill="#263238"/>
<path d="M47.6232 108.059C47.5243 108.713 46.9059 109.164 46.2504 109.065C45.5949 108.966 45.1434 108.349 45.2424 107.695C45.3413 107.041 45.9597 106.59 46.6152 106.689C47.2707 106.788 47.7222 107.405 47.6232 108.059Z" fill="#263238"/>
<path d="M44.5745 125.772C44.5003 126.253 44.055 126.58 43.5727 126.506C43.0903 126.432 42.7626 125.988 42.8368 125.506C42.911 125.025 43.3562 124.698 43.8386 124.772C44.321 124.846 44.6487 125.29 44.5745 125.772Z" fill="#263238"/>
<path d="M231.011 86.7918L213.739 199.436C213.281 202.393 210.517 204.423 207.555 203.972L71.9945 183.267L69.0571 182.816L58.0062 181.125L52.657 180.31L44.927 179.132L43.2387 178.872C40.2766 178.422 38.2421 175.657 38.6935 172.701L55.9717 60.0563C56.4231 57.1001 59.1936 55.0696 62.1557 55.5263L112.76 63.2532L120.415 64.4258L127.731 65.5429L137.131 66.9747L140.532 67.4931L226.472 80.6202C229.434 81.0769 231.462 83.8356 231.011 86.7918Z" fill="#263238"/>
<g opacity="0.1">
<path d="M103.941 182.223L46.4544 173.441C45.6753 173.324 45.1372 172.596 45.2609 171.818L50.9688 134.591C51.0863 133.813 51.816 133.276 52.5952 133.4L110.082 142.182C110.861 142.299 111.399 143.027 111.275 143.805L105.568 181.032C105.45 181.81 104.72 182.347 103.941 182.223ZM52.5272 133.887C52.0201 133.807 51.5439 134.159 51.4697 134.665L45.7618 171.892C45.6814 172.398 46.0339 172.873 46.541 172.948L104.028 181.73C104.535 181.81 105.011 181.458 105.085 180.952L110.793 143.725C110.874 143.219 110.521 142.744 110.014 142.67L52.5272 133.887Z" fill="white"/>
</g>
<path opacity="0.4" d="M69.861 156.426L82.7361 163.715C83.5586 162.209 84.1399 160.543 84.412 158.747C85.0304 154.698 83.9853 150.779 81.7838 147.687L69.861 156.426Z" fill="#4CB2E0"/>
<path opacity="0.6" d="M69.9847 155.716L81.487 147.286C79.9533 145.274 77.9188 143.639 75.5318 142.589L73.2622 147.953L69.9785 155.716H69.9847Z" fill="#4CB2E0"/>
<path d="M71.945 141.515L69.9538 154.507L75.0741 142.392C74.0847 141.997 73.0396 141.701 71.945 141.515Z" fill="#4CB2E0"/>
<path opacity="0.1" d="M69.1808 156.272L71.4565 141.441C63.2626 140.324 55.6501 145.971 54.3947 154.161C53.9866 156.827 54.302 159.438 55.1925 161.795L69.1746 156.278L69.1808 156.272Z" fill="white"/>
<path opacity="0.2" d="M67.1029 171.429C73.423 172.392 79.4215 169.319 82.4826 164.141L69.3786 156.722L55.3718 162.252C57.3383 166.98 61.661 170.596 67.1029 171.429Z" fill="#4CB2E0"/>
<path d="M93.2718 147.521L91.5664 147.261C91.3537 147.228 91.1549 147.374 91.1223 147.586L90.8613 149.289C90.8288 149.501 90.9748 149.699 91.1875 149.732L92.893 149.992C93.1057 150.025 93.3045 149.879 93.3371 149.667L93.598 147.965C93.6306 147.752 93.4845 147.554 93.2718 147.521Z" fill="#4CB2E0"/>
<path d="M102.544 149.859L95.0919 148.724C94.9373 148.699 94.826 148.551 94.8507 148.397C94.8754 148.242 95.0238 148.131 95.1784 148.156L102.63 149.292C102.785 149.316 102.896 149.464 102.871 149.619C102.847 149.773 102.698 149.884 102.544 149.859Z" fill="#4CB2E0"/>
<path d="M100.076 150.748L94.9002 149.958C94.7456 149.934 94.6342 149.785 94.659 149.631C94.6837 149.477 94.8321 149.366 94.9867 149.39L100.163 150.18C100.317 150.205 100.429 150.353 100.404 150.507C100.379 150.662 100.231 150.773 100.076 150.748Z" fill="#4CB2E0"/>
<path opacity="0.6" d="M92.4259 153.045L90.7204 152.784C90.5077 152.752 90.3089 152.898 90.2763 153.11L90.0153 154.812C89.9828 155.024 90.1288 155.223 90.3415 155.255L92.047 155.516C92.2597 155.548 92.4585 155.402 92.4911 155.19L92.752 153.488C92.7846 153.276 92.6385 153.077 92.4259 153.045Z" fill="#4CB2E0"/>
<path d="M101.69 155.389L94.2385 154.254C94.0839 154.229 93.9725 154.081 93.9973 153.927C94.022 153.772 94.1704 153.661 94.325 153.686L101.777 154.821C101.931 154.846 102.043 154.994 102.018 155.148C101.993 155.303 101.845 155.414 101.69 155.389Z" fill="#4CB2E0"/>
<path d="M99.229 156.272L94.0529 155.482C93.8983 155.457 93.787 155.309 93.8118 155.155C93.8365 155 93.9849 154.889 94.1395 154.914L99.3156 155.704C99.4702 155.728 99.5815 155.877 99.5567 156.031C99.532 156.185 99.3836 156.296 99.229 156.272Z" fill="#4CB2E0"/>
<path opacity="0.4" d="M91.5789 158.574L89.8734 158.314C89.6608 158.281 89.4619 158.427 89.4294 158.639L89.1684 160.342C89.1359 160.554 89.2819 160.752 89.4946 160.785L91.2001 161.045C91.4128 161.078 91.6116 160.932 91.6441 160.72L91.9051 159.018C91.9377 158.805 91.7916 158.607 91.5789 158.574Z" fill="#4CB2E0"/>
<path d="M100.843 160.919L93.3912 159.783C93.2366 159.759 93.1253 159.611 93.1501 159.456C93.1748 159.302 93.3232 159.191 93.4778 159.216L100.93 160.351C101.084 160.376 101.195 160.524 101.171 160.678C101.146 160.833 100.998 160.944 100.843 160.919Z" fill="#4CB2E0"/>
<path d="M98.3818 161.801L93.2057 161.011C93.0511 160.987 92.9398 160.839 92.9646 160.684C92.9893 160.53 93.1377 160.419 93.2923 160.444L98.4683 161.234C98.6229 161.258 98.7343 161.406 98.7095 161.561C98.6848 161.715 98.5364 161.826 98.3818 161.801Z" fill="#4CB2E0"/>
<path opacity="0.2" d="M90.732 164.104L89.0265 163.844C88.8138 163.811 88.615 163.957 88.5825 164.169L88.3215 165.871C88.2889 166.084 88.435 166.282 88.6477 166.314L90.3532 166.575C90.5658 166.607 90.7647 166.462 90.7972 166.249L91.0582 164.547C91.0907 164.335 90.9447 164.137 90.732 164.104Z" fill="#4CB2E0"/>
<path d="M99.9958 166.449L92.544 165.313C92.3894 165.289 92.2781 165.141 92.3029 164.986C92.3276 164.832 92.476 164.721 92.6306 164.746L100.082 165.881C100.237 165.906 100.348 166.054 100.324 166.208C100.299 166.363 100.15 166.474 99.9958 166.449Z" fill="#4CB2E0"/>
<path d="M97.5346 167.331L92.3585 166.541C92.2039 166.517 92.0926 166.369 92.1174 166.214C92.1421 166.06 92.2905 165.949 92.4451 165.974L97.6211 166.764C97.7757 166.788 97.8871 166.936 97.8623 167.091C97.8376 167.245 97.6892 167.356 97.5346 167.331Z" fill="#4CB2E0"/>
<path opacity="0.1" d="M89.8851 169.634L88.1796 169.373C87.9669 169.341 87.7681 169.487 87.7355 169.699L87.4746 171.401C87.442 171.613 87.588 171.812 87.8007 171.844L89.5062 172.104C89.7189 172.137 89.9177 171.991 89.9503 171.779L90.2112 170.077C90.2438 169.865 90.0978 169.666 89.8851 169.634Z" fill="white"/>
<path d="M99.1486 171.972L91.6968 170.837C91.5422 170.812 91.4309 170.664 91.4556 170.51C91.4804 170.355 91.6288 170.244 91.7834 170.269L99.2352 171.405C99.3898 171.429 99.5011 171.577 99.4763 171.732C99.4516 171.886 99.3032 171.997 99.1486 171.972Z" fill="#4CB2E0"/>
<path d="M96.6873 172.861L91.5113 172.071C91.3567 172.047 91.2454 171.898 91.2701 171.744C91.2949 171.59 91.4433 171.479 91.5979 171.503L96.7739 172.293C96.9285 172.318 97.0398 172.466 97.0151 172.621C96.9904 172.775 96.8419 172.886 96.6873 172.861Z" fill="#4CB2E0"/>
<g opacity="0.1">
<path d="M212.255 157.784L118.801 143.509C118.022 143.392 117.293 143.922 117.169 144.7L116.773 147.267L116.699 147.761L116.167 151.223L116.093 151.717L115.561 155.173L115.487 155.667L114.955 159.123L114.881 159.617L114.349 163.079L114.275 163.573L113.743 167.029L113.669 167.523L113.137 170.979L113.063 171.473L112.531 174.935L112.457 175.429L111.925 178.885L111.851 179.378L111.455 181.946C111.337 182.723 111.875 183.452 112.655 183.575L206.108 197.85C206.887 197.967 207.617 197.43 207.734 196.653L208.13 194.085L208.204 193.592L208.736 190.136L208.81 189.642L209.342 186.18L209.416 185.686L209.948 182.23L210.022 181.736L210.554 178.28L210.628 177.786L211.16 174.324L211.234 173.83L211.766 170.374L211.84 169.88L212.372 166.424L212.446 165.93L212.978 162.468L213.052 161.974L213.448 159.407C213.566 158.629 213.034 157.907 212.255 157.784ZM207.245 196.56C207.165 197.066 206.689 197.418 206.188 197.338L112.735 183.063C112.228 182.983 111.875 182.507 111.956 182.001L112.351 179.434L207.641 193.993L207.245 196.56ZM207.715 193.499L112.426 178.94L112.958 175.484L208.247 190.043L207.715 193.499ZM208.322 189.549L113.032 174.99L113.564 171.528L208.853 186.087L208.322 189.549ZM208.928 185.593L113.638 171.034L114.17 167.578L209.459 182.137L208.928 185.593ZM209.534 181.643L114.244 167.085L114.776 163.628L210.065 178.187L209.534 181.643ZM210.14 177.694L114.85 163.135L115.382 159.672L210.671 174.231L210.14 177.694ZM210.746 173.738L115.456 159.179L115.988 155.723L211.277 170.281L210.746 173.738ZM211.352 169.788L116.062 155.229L116.594 151.773L211.884 166.332L211.352 169.788ZM211.958 165.838L116.668 151.279L117.2 147.817L212.49 162.376L211.958 165.838ZM117.274 147.329L117.67 144.762C117.75 144.256 118.226 143.91 118.733 143.99L212.187 158.265C212.687 158.339 213.04 158.815 212.966 159.321L212.57 161.888L117.28 147.329H117.274Z" fill="white"/>
</g>
<g opacity="0.1">
<path d="M222.236 91.334L62.9844 67.0055C62.0939 66.8697 61.2652 67.4807 61.1292 68.3694L52.2056 126.555C52.0695 127.444 52.6818 128.271 53.5723 128.407L212.83 152.736C213.72 152.871 214.549 152.26 214.685 151.372L223.608 93.1855C223.744 92.2968 223.132 91.4698 222.242 91.334H222.236ZM92.3462 99.7027L103.422 101.394L102.457 107.67L91.3815 105.979L92.3462 99.7027ZM90.8929 105.905L79.8173 104.214L80.782 97.9377L91.8576 99.6287L90.8929 105.905ZM103.916 101.474L114.992 103.165L114.027 109.442L102.952 107.751L103.916 101.474ZM161.354 109.744L150.278 108.053L151.243 101.776L162.318 103.467L161.354 109.744ZM162.807 103.541L173.883 105.233L172.918 111.509L161.842 109.818L162.807 103.541ZM127.057 105.004L138.133 106.695L137.168 112.972L126.092 111.281L127.057 105.004ZM125.604 111.207L114.528 109.516L115.493 103.239L126.569 104.93L125.604 111.207ZM138.627 106.775L149.703 108.466L148.738 114.743L137.663 113.052L138.627 106.775ZM150.198 108.541L161.273 110.232L160.309 116.508L149.233 114.817L150.198 108.541ZM149.783 107.973L138.708 106.282L139.673 100.005L150.748 101.696L149.783 107.973ZM138.213 106.208L127.138 104.517L128.102 98.2401L139.178 99.9311L138.213 106.208ZM126.643 104.443L115.567 102.752L116.532 96.475L127.608 98.166L126.643 104.443ZM115.072 102.677L103.997 100.986L104.962 94.7099L116.037 96.4009L115.072 102.677ZM113.959 109.935L112.995 116.212L101.919 114.521L102.884 108.244L113.959 109.935ZM114.454 110.009L125.53 111.7L124.565 117.977L113.489 116.286L114.454 110.009ZM126.024 111.774L137.1 113.465L136.135 119.742L125.06 118.051L126.024 111.774ZM137.595 113.54L148.67 115.231L147.706 121.507L136.63 119.816L137.595 113.54ZM149.165 115.305L160.241 116.996L159.276 123.272L148.2 121.581L149.165 115.305ZM160.735 117.07L171.811 118.761L170.846 125.037L159.771 123.346L160.735 117.07ZM160.81 116.576L161.774 110.299L172.85 111.99L171.885 118.267L160.81 116.576ZM173.345 112.065L184.42 113.756L183.456 120.032L172.38 118.341L173.345 112.065ZM184.915 113.83L195.991 115.521L195.026 121.797L183.95 120.106L184.915 113.83ZM184.989 113.336L185.954 107.059L197.029 108.75L196.065 115.027L184.989 113.336ZM184.494 113.262L173.419 111.571L174.384 105.294L185.459 106.985L184.494 113.262ZM174.458 104.801L175.422 98.524L186.498 100.215L185.533 106.492L174.458 104.801ZM173.963 104.726L162.887 103.035L163.852 96.7589L174.928 98.4499L173.963 104.726ZM162.393 102.961L151.317 101.27L152.282 94.9938L163.357 96.6848L162.393 102.961ZM150.822 101.196L139.747 99.5052L140.711 93.2287L151.787 94.9197L150.822 101.196ZM139.252 99.4312L128.176 97.7402L129.141 91.4636L140.217 93.1546L139.252 99.4312ZM127.682 97.6661L116.606 95.9751L117.571 89.6985L128.646 91.3896L127.682 97.6661ZM116.111 95.901L105.036 94.21L106.001 87.9334L117.076 89.6245L116.111 95.901ZM104.541 94.1359L93.4655 92.4449L94.4302 86.1684L105.506 87.8594L104.541 94.1359ZM104.467 94.6297L103.502 100.906L92.4266 99.2152L93.3913 92.9386L104.467 94.6297ZM91.9318 99.1411L80.8562 97.4501L81.8209 91.1735L92.8965 92.8646L91.9318 99.1411ZM80.3615 97.376L69.2859 95.685L70.2506 89.4085L81.3262 91.0995L80.3615 97.376ZM80.2873 97.8698L79.3226 104.146L68.247 102.455L69.2117 96.1787L80.2873 97.8698ZM79.2484 104.64L78.2837 110.917L67.2081 109.226L68.1728 102.949L79.2484 104.64ZM79.7431 104.714L90.8187 106.405L89.854 112.682L78.7784 110.991L79.7431 104.714ZM91.3134 106.479L102.389 108.17L101.424 114.447L90.3487 112.756L91.3134 106.479ZM101.35 114.94L100.385 121.217L89.3098 119.526L90.2745 113.249L101.35 114.94ZM101.845 115.015L112.92 116.706L111.956 122.982L100.88 121.291L101.845 115.015ZM113.415 116.78L124.491 118.471L123.526 124.747L112.45 123.056L113.415 116.78ZM124.985 118.545L136.061 120.236L135.096 126.512L124.021 124.821L124.985 118.545ZM136.556 120.31L147.631 122.001L146.667 128.277L135.591 126.586L136.556 120.31ZM148.126 122.075L159.202 123.766L158.237 130.042L147.161 128.351L148.126 122.075ZM159.696 123.84L170.772 125.531L169.807 131.808L158.732 130.117L159.696 123.84ZM171.267 125.605L182.342 127.296L181.378 133.573L170.302 131.882L171.267 125.605ZM171.341 125.111L172.306 118.835L183.381 120.526L182.417 126.802L171.341 125.111ZM183.876 120.606L194.952 122.297L193.987 128.574L182.911 126.883L183.876 120.606ZM195.446 122.371L206.522 124.062L205.557 130.339L194.482 128.648L195.446 122.371ZM195.521 121.877L196.485 115.601L207.561 117.292L206.596 123.568L195.521 121.877ZM196.559 115.107L197.524 108.831L208.6 110.522L207.635 116.798L196.559 115.107ZM197.598 108.337L198.563 102.06L209.639 103.751L208.674 110.028L197.598 108.337ZM197.104 108.263L186.028 106.572L186.993 100.295L198.068 101.986L197.104 108.263ZM187.067 99.8015L188.032 93.5249L199.107 95.216L198.143 101.493L187.067 99.8015ZM186.572 99.7274L175.497 98.0364L176.461 91.7599L187.537 93.4509L186.572 99.7274ZM175.002 97.9623L163.926 96.2713L164.891 89.9948L175.967 91.6858L175.002 97.9623ZM163.432 96.1973L152.356 94.5062L153.321 88.2297L164.396 89.9207L163.432 96.1973ZM151.861 94.4322L140.786 92.7411L141.75 86.4646L152.826 88.1556L151.861 94.4322ZM140.291 92.6671L129.215 90.9761L130.18 84.6995L141.256 86.3905L140.291 92.6671ZM128.721 90.902L117.645 89.211L118.61 82.9344L129.685 84.6255L128.721 90.902ZM117.15 89.1369L106.075 87.4459L107.039 81.1693L118.115 82.8604L117.15 89.1369ZM105.58 87.3718L94.5044 85.6808L95.4691 79.4043L106.545 81.0953L105.58 87.3718ZM94.0097 85.6067L82.9341 83.9157L83.8988 77.6392L94.9744 79.3302L94.0097 85.6067ZM93.9354 86.1005L92.9707 92.377L81.8951 90.686L82.8599 84.4095L93.9354 86.1005ZM81.4004 90.6058L70.3248 88.9147L71.2895 82.6382L82.3651 84.3292L81.4004 90.6058ZM69.8301 88.8407L58.7545 87.1497L59.7192 80.8731L70.7948 82.5641L69.8301 88.8407ZM69.7559 89.3344L68.7912 95.611L57.7156 93.9199L58.6803 87.6434L69.7559 89.3344ZM68.717 96.1047L67.7523 102.381L56.6767 100.69L57.6414 94.4137L68.717 96.1047ZM67.6781 102.875L66.7133 109.152L55.6377 107.46L56.6024 101.184L67.6781 102.875ZM66.6391 109.645L65.6744 115.922L54.5988 114.231L55.5635 107.954L66.6391 109.645ZM67.1339 109.719L78.2095 111.41L77.2448 117.687L66.1691 115.996L67.1339 109.719ZM78.7042 111.484L89.7798 113.175L88.8151 119.452L77.7395 117.761L78.7042 111.484ZM88.7409 119.946L87.7762 126.222L76.7006 124.531L77.6653 118.255L88.7409 119.946ZM89.2356 120.02L100.311 121.711L99.3465 127.987L88.2709 126.296L89.2356 120.02ZM100.806 121.785L111.882 123.476L110.917 129.752L99.8412 128.061L100.806 121.785ZM112.376 123.55L123.452 125.241L122.487 131.517L111.412 129.826L112.376 123.55ZM123.947 125.315L135.022 127.006L134.057 133.283L122.982 131.592L123.947 125.315ZM135.517 127.08L146.592 128.771L145.628 135.048L134.552 133.357L135.517 127.08ZM147.087 128.845L158.163 130.536L157.198 136.813L146.123 135.122L147.087 128.845ZM158.658 130.61L169.733 132.301L168.768 138.578L157.693 136.887L158.658 130.61ZM170.228 132.375L181.303 134.066L180.339 140.343L169.263 138.652L170.228 132.375ZM181.798 134.14L192.874 135.831L191.909 142.108L180.833 140.417L181.798 134.14ZM181.872 133.647L182.837 127.37L193.913 129.061L192.948 135.338L181.872 133.647ZM194.407 129.135L205.483 130.826L204.518 137.103L193.443 135.412L194.407 129.135ZM205.978 130.9L217.053 132.591L216.089 138.868L205.013 137.177L205.978 130.9ZM206.052 130.407L207.017 124.13L218.092 125.821L217.128 132.098L206.052 130.407ZM207.091 123.636L208.056 117.36L219.131 119.051L218.167 125.327L207.091 123.636ZM208.13 116.866L209.095 110.589L220.17 112.281L219.205 118.557L208.13 116.866ZM209.169 110.096L210.133 103.819L221.209 105.51L220.244 111.787L209.169 110.096ZM210.208 103.325L211.172 97.0489L222.248 98.74L221.283 105.017L210.208 103.325ZM209.713 103.251L198.637 101.56L199.602 95.2839L210.678 96.9749L209.713 103.251ZM199.67 94.7901L200.635 88.5136L211.71 90.2046L210.746 96.4812L199.67 94.7901ZM199.175 94.7161L188.1 93.025L189.064 86.7485L200.14 88.4395L199.175 94.7161ZM187.605 92.951L176.529 91.26L177.494 84.9834L188.57 86.6744L187.605 92.951ZM176.035 91.1859L164.959 89.4949L165.924 83.2183L176.999 84.9094L176.035 91.1859ZM164.464 89.4208L153.389 87.7298L154.353 81.4532L165.429 83.1443L164.464 89.4208ZM152.894 87.6557L141.818 85.9647L142.783 79.6881L153.859 81.3792L152.894 87.6557ZM141.324 85.8906L130.248 84.1996L131.213 77.9231L142.288 79.6141L141.324 85.8906ZM129.753 84.1256L118.678 82.4345L119.642 76.158L130.718 77.849L129.753 84.1256ZM118.183 82.3605L107.107 80.6694L108.072 74.3929L119.148 76.0839L118.183 82.3605ZM106.613 80.5954L95.5371 78.9044L96.5018 72.6278L107.577 74.3188L106.613 80.5954ZM95.0424 78.8303L83.9668 77.1393L84.9315 70.8627L96.0071 72.5537L95.0424 78.8303ZM83.4721 77.0652L72.3965 75.3742L73.3612 69.0976L84.4368 70.7887L83.4721 77.0652ZM83.3979 77.5589L82.4332 83.8355L71.3575 82.1445L72.3223 75.8679L83.3979 77.5589ZM70.8628 82.0642L59.7872 80.3732L60.7519 74.0967L71.8275 75.7877L70.8628 82.0642ZM54.5184 114.7L65.594 116.391L64.6293 122.667L53.5537 120.976L54.5184 114.7ZM66.0888 116.465L77.1644 118.156L76.1996 124.432L65.124 122.741L66.0888 116.465ZM76.1254 124.926L75.1607 131.203L64.0851 129.512L65.0498 123.235L76.1254 124.926ZM76.6202 125L87.6958 126.691L86.7311 132.968L75.6555 131.277L76.6202 125ZM88.1905 126.765L99.2661 128.456L98.3014 134.733L87.2258 133.042L88.1905 126.765ZM99.7608 128.53L110.836 130.221L109.872 136.498L98.7961 134.807L99.7608 128.53ZM111.331 130.295L122.407 131.987L121.442 138.263L110.366 136.572L111.331 130.295ZM122.901 132.061L133.977 133.752L133.012 140.028L121.937 138.337L122.901 132.061ZM134.472 133.826L145.547 135.517L144.583 141.793L133.507 140.102L134.472 133.826ZM146.042 135.591L157.118 137.282L156.153 143.558L145.077 141.867L146.042 135.591ZM157.612 137.356L168.688 139.047L167.723 145.323L156.648 143.632L157.612 137.356ZM169.183 139.121L180.258 140.812L179.294 147.089L168.218 145.397L169.183 139.121ZM180.753 140.886L191.829 142.577L190.864 148.854L179.788 147.163L180.753 140.886ZM192.323 142.651L203.399 144.342L202.434 150.619L191.359 148.928L192.323 142.651ZM192.398 142.157L193.362 135.881L204.438 137.572L203.473 143.848L192.398 142.157ZM204.933 137.652L216.008 139.343L215.044 145.62L203.968 143.929L204.933 137.652ZM223.101 93.0868L222.31 98.2462L211.234 96.5552L212.199 90.2787L222.161 91.8031C222.78 91.8956 223.2 92.4758 223.108 93.0868H223.101ZM62.9102 67.4992L72.8726 69.0174L71.9079 75.294L60.8323 73.6029L61.6239 68.4434C61.7166 67.8263 62.2979 67.4066 62.9102 67.4992ZM52.7003 126.63L53.4919 121.47L64.5675 123.161L63.6028 129.438L53.6403 127.913C53.0219 127.821 52.6014 127.241 52.6941 126.63H52.7003ZM212.904 152.242L202.941 150.717L203.906 144.441L214.982 146.132L214.19 151.291C214.097 151.909 213.516 152.328 212.904 152.236V152.242Z" fill="white"/>
</g>
<path opacity="0.5" d="M216.979 133.091L214.19 151.285C214.097 151.878 213.547 152.279 212.953 152.186L53.6032 127.852C53.0095 127.759 52.6076 127.21 52.7003 126.623L53.0714 124.192C53.0714 124.192 60.5602 118.168 65.2477 118.884C70.7886 119.73 71.7657 122.865 76.6944 123.618C81.6169 124.371 87.0588 112.941 91.5237 113.626C93.9354 113.996 94.5539 115.848 95.7412 117.551C96.6193 118.823 97.8252 120.001 100.317 120.427C100.373 120.44 100.441 120.452 100.497 120.458C106.557 121.384 114.757 89.2728 123.099 90.5503C126.785 91.1119 128.275 98.2031 129.382 106.023C130.786 115.91 131.578 126.975 135.443 127.568C142.356 128.623 144.706 114.626 151.132 115.613C155.17 116.23 156.642 123.704 160.043 129.617C162.053 133.122 164.743 136.078 169.053 136.733C172.967 137.331 175.583 136.424 177.618 134.998C181.606 132.215 183.387 127.463 188.372 128.228C191.322 128.679 192.404 130.95 193.498 133.091C194.457 134.961 195.434 136.733 197.71 137.084C200.387 137.492 202.663 133.671 205.081 130.277C207.066 127.488 209.138 124.982 211.605 125.358C214.122 125.741 215.606 128.759 216.355 130.913C216.781 132.153 216.967 133.104 216.967 133.104L216.979 133.091Z" fill="#4CB2E0"/>
<path opacity="0.5" d="M220.813 108.09L214.19 151.285C214.097 151.878 213.547 152.279 212.953 152.186L53.6032 127.852C53.0095 127.759 52.6076 127.21 52.7003 126.623L53.0714 124.192C59.6883 125.204 63.2194 120.26 67.6595 120.939C72.0996 121.618 74.4001 124.71 78.5558 125.346C82.7176 125.982 89.1181 116.274 93.6695 116.971C94.4549 117.088 95.1352 117.298 95.7412 117.551C97.4913 118.279 98.6972 119.458 100.317 120.427C101.418 121.081 102.704 121.649 104.479 121.921C109.804 122.735 120.459 103.498 126.637 104.443C127.713 104.609 128.603 105.183 129.382 106.023C133.031 109.991 133.971 119.915 139.116 120.699C145.356 121.649 148.695 111.521 154.743 112.447C160.791 113.373 162.584 123.778 169.597 124.852C176.616 125.926 184.204 106.806 191.482 107.923C198.755 109.034 200.839 118.853 207.165 119.816C214.097 120.878 220.801 108.096 220.801 108.096L220.813 108.09Z" fill="#4CB2E0"/>
<path d="M217.734 128.172L214.19 151.285C214.097 151.878 213.547 152.279 212.953 152.186L53.6032 127.852C53.0095 127.759 52.6076 127.21 52.7003 126.623L52.8858 125.432C53.1146 125.21 56.8684 121.674 60.6777 122.26C64.6169 122.859 64.6231 126.383 70.1207 127.222C75.6122 128.061 77.2138 123.723 85.0057 124.914C92.8038 126.105 92.7667 131.542 100.824 132.77C108.882 133.999 110.546 127.487 116.266 128.358C121.98 129.228 121.609 132.561 124.856 133.054C128.102 133.548 130.001 128.463 134.002 129.074C138.003 129.685 141.064 138.053 145.572 138.744C148.738 139.226 154.341 132.974 160.049 129.61C162.467 128.191 164.903 127.29 167.185 127.642C171.891 128.358 174.637 132.024 177.624 134.992C179.504 136.862 181.477 138.448 184.086 138.849C187.815 139.417 190.648 136.054 193.511 133.085C195.836 130.672 198.18 128.524 201.031 128.962C202.849 129.24 204.116 129.715 205.1 130.271C207.561 131.653 208.223 133.517 211.185 133.968C214.753 134.511 217.74 128.179 217.74 128.179L217.734 128.172Z" fill="#4CB2E0"/>
<path d="M72.4274 65.1293L63.8749 63.8209C63.04 63.6913 62.4711 62.9198 62.601 62.0867C62.7308 61.2535 63.5038 60.6857 64.3387 60.8153L72.8912 62.1237C73.726 62.2533 74.295 63.0247 74.1651 63.8579C74.0352 64.6911 73.2622 65.2589 72.4274 65.1293Z" fill="#4CB2E0"/>
<path d="M77.152 63.4074C77.1953 63.4074 77.2447 63.4074 77.288 63.4198L85.8405 64.7282C86.0817 64.7652 86.292 64.8948 86.4342 65.0861C86.5764 65.2836 86.6383 65.5181 86.6012 65.7588C86.5332 66.197 86.1497 66.5241 85.7045 66.5241C85.6612 66.5241 85.6117 66.5241 85.5684 66.5118L77.0159 65.2034C76.5212 65.1293 76.1811 64.6665 76.2553 64.1727C76.3233 63.7345 76.7067 63.4074 77.152 63.4074ZM77.152 62.7903C76.4099 62.7903 75.7606 63.3272 75.6493 64.0802C75.5194 64.9133 76.0945 65.6848 76.9232 65.8144L85.4819 67.1228C85.5623 67.1351 85.6365 67.1413 85.7169 67.1413C86.459 67.1413 87.1083 66.6043 87.2196 65.8514C87.3494 65.0182 86.7743 64.2468 85.9457 64.1172L77.3932 62.8088C77.3128 62.7965 77.2386 62.7903 77.1582 62.7903H77.152Z" fill="#4CB2E0"/>
<path d="M90.2003 65.4009C90.2436 65.4009 90.2931 65.4009 90.3363 65.4132L98.8889 66.7216C99.13 66.7586 99.3403 66.8882 99.4825 67.0795C99.6248 67.277 99.6866 67.5115 99.6495 67.7522C99.5815 68.1904 99.1981 68.5175 98.7528 68.5175C98.7095 68.5175 98.6601 68.5175 98.6168 68.5052L90.0581 67.1968C89.8169 67.1598 89.6066 67.0302 89.4644 66.8388C89.3222 66.6414 89.2603 66.4068 89.2974 66.1661C89.3654 65.7279 89.7489 65.4009 90.1941 65.4009M90.1941 64.7837C89.452 64.7837 88.8027 65.3206 88.6914 66.0736C88.5615 66.9067 89.1366 67.6782 89.9653 67.8078L98.524 69.1162C98.6044 69.1285 98.6786 69.1347 98.759 69.1347C99.5011 69.1347 100.15 68.5978 100.262 67.8448C100.392 67.0116 99.8165 66.2402 98.9878 66.1106L90.4353 64.8022C90.3549 64.7899 90.2807 64.7837 90.2003 64.7837H90.1941Z" fill="#4CB2E0"/>
<path d="M223.448 86.8224L223.553 86.1559L223.058 86.0386C223.046 85.9276 223.021 85.8226 222.978 85.7177L223.361 85.3845L222.959 84.8413L222.526 85.1067C222.44 85.0388 222.347 84.9833 222.248 84.9401L222.279 84.434L221.611 84.3291L221.494 84.8228C221.382 84.8352 221.277 84.8599 221.172 84.9031L220.838 84.5204L220.294 84.9216L220.56 85.3536C220.492 85.44 220.436 85.5326 220.393 85.6313L219.886 85.6005L219.781 86.267L220.275 86.3843C220.288 86.4953 220.312 86.6003 220.356 86.7052L219.972 87.0384L220.374 87.5816L220.807 87.3162C220.894 87.3841 220.986 87.4396 221.085 87.4828L221.054 87.9889L221.722 88.0938L221.84 87.6001C221.951 87.5877 222.056 87.563 222.161 87.5198L222.495 87.9025L223.04 87.5013L222.774 87.0693C222.842 86.9829 222.897 86.8903 222.941 86.7916L223.448 86.8224ZM221.543 86.9829C221.116 86.915 220.819 86.52 220.887 86.088C220.955 85.656 221.351 85.3659 221.784 85.4338C222.217 85.5017 222.508 85.8967 222.44 86.3287C222.372 86.7607 221.976 87.0508 221.543 86.9829Z" fill="#4CB2E0"/>
<path opacity="0.2" d="M127.27 160.26L125.448 159.982L123.447 173.037L125.268 173.315L127.27 160.26Z" fill="#4CB2E0"/>
<path d="M126.963 162.227L125.142 161.949L124.2 168.092L126.021 168.37L126.963 162.227Z" fill="#4CB2E0"/>
<path opacity="0.2" d="M122.669 162.935L120.848 162.657L118.846 175.713L120.668 175.991L122.669 162.935Z" fill="#4CB2E0"/>
<path d="M120.309 166.089L119.366 172.238L121.188 172.516L122.131 166.367L120.309 166.089Z" fill="#4CB2E0"/>
<path opacity="0.2" d="M118.951 159.8L117.13 159.522L115.128 172.577L116.95 172.855L118.951 159.8Z" fill="#4CB2E0"/>
<path d="M118.202 164.721L116.38 164.442L115.437 170.592L117.259 170.87L118.202 164.721Z" fill="#4CB2E0"/>
<path opacity="0.2" d="M130.966 163.466L129.144 163.188L127.142 176.243L128.964 176.522L130.966 163.466Z" fill="#4CB2E0"/>
<path d="M130.67 165.434L128.849 165.156L127.906 171.305L129.727 171.583L130.67 165.434Z" fill="#4CB2E0"/>
<path opacity="0.2" d="M135.656 160.23L133.835 159.952L131.833 173.007L133.655 173.286L135.656 160.23Z" fill="#4CB2E0"/>
<path d="M135.43 161.703L133.608 161.425L132.665 167.574L134.487 167.852L135.43 161.703Z" fill="#4CB2E0"/>
<path opacity="0.2" d="M139.234 164.224L137.412 163.946L135.41 177.001L137.232 177.28L139.234 164.224Z" fill="#4CB2E0"/>
<path d="M139.153 164.718L137.332 164.44L136.389 170.589L138.21 170.868L139.153 164.718Z" fill="#4CB2E0"/>
<path opacity="0.2" d="M144.375 158.029L142.553 157.751L140.551 170.807L142.373 171.085L144.375 158.029Z" fill="#4CB2E0"/>
<path d="M144.301 158.518L142.48 158.24L141.538 164.383L143.359 164.662L144.301 158.518Z" fill="#4CB2E0"/>
<path opacity="0.2" d="M147.207 166.872L145.385 166.594L143.383 179.649L145.205 179.927L147.207 166.872Z" fill="#4CB2E0"/>
<path d="M146.905 168.84L145.084 168.562L144.141 174.711L145.962 174.989L146.905 168.84Z" fill="#4CB2E0"/>
<path opacity="0.2" d="M151.186 168.26L149.365 167.981L147.363 181.037L149.185 181.315L151.186 168.26Z" fill="#4CB2E0"/>
<path d="M150.432 173.173L148.61 172.895L147.667 179.044L149.489 179.323L150.432 173.173Z" fill="#4CB2E0"/>
<path opacity="0.2" d="M156.545 160.687L154.723 160.408L152.721 173.464L154.543 173.742L156.545 160.687Z" fill="#4CB2E0"/>
<path d="M155.71 166.103L153.888 165.824L152.946 171.968L154.768 172.246L155.71 166.103Z" fill="#4CB2E0"/>
<path opacity="0.2" d="M159.755 167.055L157.933 166.776L155.931 179.832L157.753 180.11L159.755 167.055Z" fill="#4CB2E0"/>
<path d="M159.38 169.512L157.559 169.233L156.617 175.377L158.438 175.655L159.38 169.512Z" fill="#4CB2E0"/>
<path opacity="0.2" d="M164.372 164.272L162.55 163.994L160.549 177.049L162.37 177.328L164.372 164.272Z" fill="#4CB2E0"/>
<path d="M164.07 166.246L162.249 165.968L161.306 172.117L163.128 172.396L164.07 166.246Z" fill="#4CB2E0"/>
<path opacity="0.2" d="M169.368 159.039L167.547 158.76L165.545 171.816L167.367 172.094L169.368 159.039Z" fill="#4CB2E0"/>
<path d="M169.363 159.031L167.541 158.753L166.598 164.902L168.42 165.181L169.363 159.031Z" fill="#4CB2E0"/>
<path opacity="0.2" d="M172.199 167.929L170.378 167.651L168.376 180.706L170.198 180.984L172.199 167.929Z" fill="#4CB2E0"/>
<path d="M171.972 169.408L170.15 169.129L169.207 175.279L171.029 175.557L171.972 169.408Z" fill="#4CB2E0"/>
<path opacity="0.2" d="M175.409 174.297L173.588 174.019L171.586 187.074L173.408 187.352L175.409 174.297Z" fill="#4CB2E0"/>
<path d="M175.188 175.769L173.366 175.491L172.424 181.641L174.245 181.919L175.188 175.769Z" fill="#4CB2E0"/>
<path opacity="0.2" d="M180.563 168.012L178.741 167.734L176.74 180.789L178.561 181.068L180.563 168.012Z" fill="#4CB2E0"/>
<path d="M179.814 172.921L177.993 172.643L177.05 178.792L178.872 179.07L179.814 172.921Z" fill="#4CB2E0"/>
<path opacity="0.2" d="M185.794 161.252L183.972 160.974L181.971 174.029L183.792 174.307L185.794 161.252Z" fill="#4CB2E0"/>
<path d="M184.885 167.156L183.064 166.878L182.121 173.027L183.942 173.306L184.885 167.156Z" fill="#4CB2E0"/>
<path opacity="0.2" d="M188.758 169.26L186.936 168.981L184.935 182.037L186.756 182.315L188.758 169.26Z" fill="#4CB2E0"/>
<path d="M188.463 171.221L186.641 170.943L185.698 177.093L187.52 177.371L188.463 171.221Z" fill="#4CB2E0"/>
<path opacity="0.2" d="M192.514 172.06L190.692 171.782L188.69 184.837L190.512 185.115L192.514 172.06Z" fill="#4CB2E0"/>
<path d="M191.691 177.47L189.87 177.192L188.927 183.341L190.748 183.619L191.691 177.47Z" fill="#4CB2E0"/>
<path opacity="0.2" d="M197.237 168.609L195.415 168.331L193.414 181.386L195.235 181.664L197.237 168.609Z" fill="#4CB2E0"/>
<path d="M197.237 168.615L195.415 168.336L194.472 174.486L196.294 174.764L197.237 168.615Z" fill="#4CB2E0"/>
<path opacity="0.2" d="M200.708 173.313L198.886 173.035L196.885 186.09L198.706 186.369L200.708 173.313Z" fill="#4CB2E0"/>
<path d="M200.556 174.29L198.734 174.012L197.791 180.162L199.613 180.44L200.556 174.29Z" fill="#4CB2E0"/>
<path opacity="0.2" d="M205.078 172.177L203.257 171.899L201.255 184.954L203.077 185.232L205.078 172.177Z" fill="#4CB2E0"/>
<path d="M204.999 172.665L203.177 172.387L202.234 178.536L204.056 178.814L204.999 172.665Z" fill="#4CB2E0"/>
<path opacity="0.2" d="M208.909 174.476L207.087 174.198L205.086 187.253L206.907 187.531L208.909 174.476Z" fill="#4CB2E0"/>
<path d="M207.94 180.863L206.118 180.585L205.175 186.735L206.997 187.013L207.94 180.863Z" fill="#4CB2E0"/>
<path d="M142.769 192.608L108.464 187.369L108.301 188.431L142.606 193.67L142.769 192.608Z" fill="#999999" stroke="#263238" stroke-linecap="round" stroke-linejoin="round"/>
<path opacity="0.2" d="M164.576 117.971C164.576 117.971 159.925 120.544 162.887 127.518C165.843 134.498 183.864 145.953 183.499 151.779C183.499 151.779 165.002 140.275 159.863 146.916C159.863 146.916 173.833 160.438 175.286 170.609C176.734 180.786 181.489 185.291 192.404 191.092C203.319 196.893 227.109 227.517 227.109 227.517L223.553 176.107L188.928 137.103L171.805 127.37L164.57 117.971H164.576Z" fill="black"/>
<path d="M258.542 209.632C258.542 209.632 228.055 229.615 228.049 229.615C228.03 229.621 228.018 229.628 227.999 229.628C227.943 229.628 227.894 229.591 227.869 229.535C227.733 229.177 214.246 193.252 211.018 190.45C208.612 188.364 207.561 185.642 207.171 184.316C207.171 184.316 207.165 184.316 207.165 184.303C207.159 184.291 207.159 184.272 207.153 184.254C207.035 183.859 206.98 183.6 206.967 183.532C206.85 183.248 204.636 178.298 199.008 174.608C196.887 173.213 194.42 172.213 191.81 171.151C187.976 169.602 184.031 168.004 181.242 165.048C180.772 164.548 180.333 164.011 179.937 163.425C175.503 156.944 168.657 149.791 166.375 148.323C164.007 146.792 159.913 147.051 159.876 147.057C159.802 147.064 159.74 147.014 159.727 146.946C159.548 145.903 159.901 144.786 160.729 143.805C161.867 142.453 163.63 141.645 165.448 141.645C168.973 141.645 173.827 143.515 176.276 145.823C178.669 148.076 184.389 149.859 185.039 150.057C185.96 149.514 188.106 150.68 188.928 151.174C187.982 147.81 188.366 146.514 188.514 146.187C186.486 143.564 175.923 135.8 170.314 131.906H170.308C168.762 130.826 167.6 130.048 167.093 129.752C164.477 128.215 162.312 123.408 162.733 120.05C162.869 118.958 163.289 118.174 163.976 117.718C164.569 117.323 165.244 117.248 165.738 117.267C166.159 117.279 166.456 117.353 166.487 117.36C166.511 117.372 166.536 117.384 166.555 117.403C166.604 117.471 171.854 123.685 173.672 124.661C174.563 125.136 179.3 127.524 183.802 129.746C184.488 130.085 185.168 130.425 185.83 130.746C185.843 129.789 185.886 126.037 186.139 124.889C186.313 124.124 187.537 123.031 188.928 122.396C189.578 122.099 190.802 121.674 191.668 122.143C192.008 122.334 192.812 122.828 193.925 123.519C194.469 123.852 195.1 124.247 195.793 124.667C196.028 124.327 196.764 123.328 197.227 123.056C197.691 122.784 200.258 122.309 201.173 122.63C201.971 122.92 204.531 124.543 207.239 126.259C207.623 126.5 208.012 126.747 208.408 126.993C208.55 126.728 208.884 126.173 209.2 126.049C210.406 125.562 212.36 125.463 213.374 125.827C214.289 126.16 217.431 128.475 220.473 130.715C222.143 131.949 223.744 133.128 224.796 133.838C224.833 133.85 224.864 133.869 224.882 133.9C225.185 134.103 225.439 134.264 225.631 134.375C227.869 135.652 233.373 164.461 233.429 164.752C233.787 166.683 235.098 168.677 236.484 170.787C237.838 172.849 239.372 175.188 240.293 177.879C242.055 183.02 246.069 190.543 251.95 199.738C252.482 200.572 253.032 201.417 253.595 202.275C255.184 204.707 256.879 207.212 258.542 209.632Z" fill="white"/>
<path opacity="0.4" d="M190.598 154.47C189.417 155.401 180.846 154.519 179.795 157.395C179.176 159.092 179.634 161.66 181.242 165.048C180.772 164.548 180.333 164.011 179.937 163.425C175.503 156.944 168.657 149.791 166.375 148.323C164.007 146.792 159.913 147.051 159.876 147.057C159.802 147.064 159.74 147.014 159.727 146.946C159.548 145.903 159.901 144.786 160.729 143.805C161.867 142.453 163.63 141.645 165.448 141.645C168.973 141.645 173.827 143.515 176.276 145.823C178.669 148.076 184.389 149.859 185.039 150.057C185.96 149.514 188.106 150.68 188.928 151.174C187.982 147.81 188.366 146.514 188.514 146.187C186.486 143.564 175.923 135.8 170.314 131.906H170.308C168.762 130.826 167.6 130.048 167.093 129.752C164.477 128.215 162.312 123.408 162.733 120.05C162.869 118.958 163.289 118.174 163.976 117.718C164.569 117.323 165.244 117.248 165.738 117.267C165.349 117.415 164.959 117.643 164.576 117.971C162.857 119.433 166.957 127.154 169.263 129.289C171.675 131.517 182.522 137.047 186.418 140.343C188.557 142.151 191.365 144.891 191.365 144.891C189.652 147.798 191.773 153.544 190.598 154.47Z" fill="#4CB2E0"/>
<path d="M230.423 107.263C230.417 107.207 230.417 107.195 230.423 107.22C230.429 107.238 230.429 107.251 230.423 107.263Z" fill="#4CB2E0"/>
<path opacity="0.4" d="M251.95 199.738C247.355 195.375 240.516 188.58 239.236 185.599C237.281 181.032 235.977 176.817 233.546 173.744C231.122 170.676 226.187 137.917 224.771 137.825C223.392 137.726 226.552 150.773 226.719 151.452C226.583 151.038 224.814 145.477 223.12 139.139C221.364 132.554 219.589 132.196 219.589 132.196C217.233 132.665 217.22 134.338 216.014 134.313C214.815 134.288 210.671 131.357 210.671 131.357C206.658 131.937 191.6 122.26 191.6 122.26C188.174 122.723 187.37 125.71 190.295 128.512C193.226 131.32 197.592 134.726 197.592 134.726C194.772 136.097 184.42 130.301 184.42 130.301L183.802 129.746C184.488 130.085 185.169 130.425 185.83 130.746C185.843 129.789 185.886 126.037 186.139 124.889C186.313 124.124 187.537 123.031 188.928 122.396C189.578 122.099 190.802 121.673 191.668 122.143C192.008 122.334 192.812 122.828 193.925 123.519C194.469 123.852 195.1 124.247 195.793 124.667C196.028 124.327 196.764 123.327 197.227 123.056C197.691 122.784 200.258 122.309 201.173 122.63C201.971 122.92 204.531 124.543 207.239 126.259C207.623 126.5 208.012 126.747 208.408 126.993C208.55 126.728 208.884 126.173 209.2 126.049C210.406 125.562 212.36 125.463 213.374 125.827C214.289 126.16 217.431 128.475 220.473 130.715C222.143 131.949 223.745 133.128 224.796 133.838C224.833 133.85 224.864 133.869 224.882 133.899C225.185 134.103 225.439 134.264 225.631 134.375C227.869 135.652 233.373 164.461 233.429 164.751C233.787 166.683 235.098 168.677 236.484 170.787C237.838 172.849 239.372 175.188 240.293 177.879C242.055 183.019 246.069 190.543 251.95 199.738Z" fill="#4CB2E0"/>
<path d="M227.999 229.492C227.999 229.492 214.4 193.209 211.111 190.352C207.821 187.494 207.103 183.495 207.103 183.495C207.103 183.495 204.957 178.354 199.089 174.497C193.22 170.639 184.346 169.64 180.048 163.357C175.756 157.074 168.886 149.785 166.449 148.212C164.019 146.638 159.863 146.928 159.863 146.928C159.437 144.496 162.152 141.787 165.448 141.787C168.744 141.787 173.604 143.503 176.183 145.928C178.762 148.354 185.057 150.211 185.057 150.211C186.059 149.495 189.157 151.476 189.157 151.476C187.92 147.298 188.675 146.175 188.675 146.175C186.245 142.892 169.603 131.067 167.167 129.641C164.73 128.216 162.442 123.5 162.875 120.069C163.302 116.638 166.456 117.495 166.456 117.495C166.456 117.495 171.749 123.778 173.611 124.778C175.472 125.778 190.072 133.066 192.218 133.918C194.364 134.776 195.941 133.634 195.941 133.634" stroke="#263238" stroke-linecap="round" stroke-linejoin="round"/>
<path d="M185.966 130.962C185.966 130.962 185.985 126.21 186.269 124.92C186.554 123.636 190.023 121.402 191.6 122.26C193.177 123.118 204.772 130.727 207.796 131.061" stroke="#263238" stroke-linecap="round" stroke-linejoin="round"/>
<path d="M195.824 124.858C195.824 124.858 196.764 123.482 197.295 123.167C197.722 122.914 200.264 122.451 201.123 122.754C202.842 123.371 212.966 130.345 214.685 130.771" stroke="#263238" stroke-linecap="round" stroke-linejoin="round"/>
<path d="M208.458 127.191C208.458 127.191 208.897 126.315 209.249 126.173C210.474 125.679 212.372 125.611 213.331 125.957C214.908 126.531 223.565 133.35 225.569 134.492C227.572 135.634 232.582 160.919 233.299 164.776C234.016 168.634 238.308 172.491 240.169 177.922C242.031 183.353 246.465 191.635 253.484 202.349C254.714 204.231 256.007 206.157 257.299 208.046" stroke="#263238" stroke-linecap="round" stroke-linejoin="round"/>
<path d="M194.791 141.028C194.791 141.028 195.434 138.133 197.153 136.85C198.872 135.566 201.235 137.603 202.948 137.812" stroke="#263238" stroke-linecap="round" stroke-linejoin="round"/>
<path d="M206.491 136.43C206.491 136.43 207.456 133.103 209.175 132.35C210.894 131.598 213.541 133.85 214.685 133.955" stroke="#263238" stroke-linecap="round" stroke-linejoin="round"/>
<path d="M217.765 133.424C217.765 133.424 219.051 132.209 219.589 132.202C220.127 132.196 222.378 134.554 222.86 134.714C223.343 134.875 223.936 133.992 224.765 133.98" stroke="#263238" stroke-linecap="round" stroke-linejoin="round"/>
<path d="M213.85 130.406C213.85 130.406 215.402 130.264 216.528 131.067" stroke="#263238" stroke-linecap="round" stroke-linejoin="round"/>
<path d="M188.669 146.175C188.669 146.175 187.809 143.978 188.242 142.855" stroke="#263238" stroke-linecap="round" stroke-linejoin="round"/>
<path d="M190.332 130.049C190.332 130.049 191.353 131.246 191.408 132.196C191.464 133.147 193.907 134.313 193.907 134.313" stroke="#263238" stroke-linecap="round" stroke-linejoin="round"/>
<path d="M206.701 130.777C206.701 130.777 208.099 130.277 208.853 130.777" stroke="#263238" stroke-linecap="round" stroke-linejoin="round"/>
<path d="M188.669 149.063C188.669 149.063 188.384 146.848 190.332 145.348" stroke="#263238" stroke-linecap="round" stroke-linejoin="round"/>
<path d="M189.151 151.477C189.151 151.477 187.556 152.853 187.556 153.711" stroke="#263238" stroke-linecap="round" stroke-linejoin="round"/>
<path d="M181.811 149.063C183.703 149.767 185.274 152.704 186.418 153.204" stroke="#263238" stroke-linecap="round" stroke-linejoin="round"/>
<path d="M204.741 139.707C205.885 141.349 208.464 153.278 211.036 157.062" stroke="#263238" stroke-linecap="round" stroke-linejoin="round"/>
<path d="M214.332 136.337C214.549 136.479 216.052 141.12 216.052 141.12" stroke="#263238" stroke-linecap="round" stroke-linejoin="round"/>
<path d="M233.546 165.745C234.152 169.64 235.587 172.639 235.587 172.639" stroke="#263238" stroke-linecap="round" stroke-linejoin="round"/>
<path d="M207.295 184.273C207.097 183.489 206.268 178.348 205.254 176.632" stroke="#263238" stroke-linecap="round" stroke-linejoin="round"/>
<path opacity="0.2" d="M33.9874 264.491C33.9874 264.491 54.1103 237.49 69.2797 232.547C84.4553 227.603 85.2036 220.895 84.5852 208.379C83.9668 195.863 84.4244 183.248 80.2811 181.742C76.1378 180.236 85.2778 163.894 80.8871 157.42L52.1809 202.442L33.9874 264.497V264.491Z" fill="black"/>
<path d="M29.1082 272.014C29.0217 271.99 28.9227 271.953 28.8052 271.916C29.0464 272.052 29.1948 272.138 29.2381 272.156C29.2196 272.132 29.1763 272.089 29.1082 272.014ZM78.0239 189.185C75.5194 188.031 70.6402 182.618 70.028 181.94C73.1324 176.743 76.1749 171.732 77.2324 170.528C79.4277 168.035 82.1054 160.857 81.017 157.377C80.0214 154.18 76.7624 154.692 76.3171 154.778C76.2862 154.784 76.2677 154.791 76.2677 154.791C76.2306 154.791 76.2058 154.815 76.1873 154.846C76.1193 154.963 69.4838 166.128 67.4245 168.8C66.4412 170.072 64.1779 172.966 61.8836 175.867C61.7661 175.848 61.5188 175.805 61.1972 175.762C60.1335 175.632 58.1794 175.472 56.8374 175.885C56.7942 175.898 56.7447 175.916 56.6952 175.935C56.219 176.114 55.4708 176.515 54.5741 177.058C54.4875 177.021 54.3144 176.947 54.0855 176.854C53.1085 176.447 51.0863 175.663 50.1278 175.62C48.959 175.558 44.8404 177.465 42.3792 179.014C41.9958 178.891 39.6644 178.193 37.1722 178.292C35.2861 178.372 31.4396 179.934 28.3476 181.187C26.9747 181.742 25.7874 182.223 25.0948 182.439C24.8845 182.507 24.6867 182.563 24.495 182.625C22.6521 183.174 21.6379 183.482 20.3517 186.05C19.0654 188.617 17.575 198.659 16.8824 203.435L16.7896 204.083C16.5237 205.91 16.567 209.181 16.6103 212.643C16.6783 217.457 16.7464 222.432 16.029 224.382C14.9592 227.276 13.3761 229.572 12.2196 231.245C12.0156 231.535 11.8301 231.806 11.6569 232.066C10.5685 233.676 10.0367 235.096 9.36263 236.886C8.84317 238.256 8.19384 239.762 7.56307 241.138C6.40047 243.687 5.31827 245.791 5.31827 245.791C5.31827 245.791 27.1974 269.898 29.1082 272.014C29.2999 272.082 29.4113 272.113 29.4236 272.113C29.4978 271.99 33.5422 265.09 37.8277 258.283C41.5196 252.407 45.3908 246.6 47.0419 245.267C49.7505 243.076 51.111 240.058 51.7789 237.91C52.6694 235.053 58.3525 231.529 63.8501 228.122C69.929 224.357 76.2058 220.463 76.4285 217.241C76.546 215.575 76.9294 212.816 77.3746 209.613C78.5805 200.936 80.077 190.129 78.0239 189.185ZM67.61 203.059L64.9076 205.7C64.5242 203.54 61.896 200.67 61.4817 200.232C61.7043 199.282 61.797 198.146 61.8836 197.085C61.9826 195.881 62.0877 194.635 62.3845 194.412C62.6814 194.19 64.048 191.962 66.2743 188.235C66.4598 190.845 68.7232 193.721 69.0571 194.135L67.61 203.059Z" fill="white"/>
<path opacity="0.4" d="M35.5211 195.042C34.7233 202.152 27.7416 219.79 27.7416 219.79L26.48 202.022C26.48 202.022 21.0937 226.135 19.5786 227.005C18.0636 227.869 15.4724 232.485 14.0006 236.145C13.0174 238.608 9.66564 240.292 7.56306 241.138C8.19384 239.762 8.84316 238.256 9.36262 236.886C10.0367 235.096 10.5685 233.676 11.6569 232.066C11.83 231.806 12.0156 231.535 12.2196 231.245C13.3761 229.572 14.9592 227.276 16.029 224.382C16.7464 222.432 16.6783 217.457 16.6103 212.643C16.567 209.181 16.5237 205.91 16.7896 204.083L16.8824 203.435C17.575 198.659 19.0159 188.716 20.3516 186.05C21.6874 183.384 22.6521 183.174 24.4949 182.625C24.6867 182.563 24.8845 182.507 25.0948 182.44C25.7874 182.224 26.9747 181.742 28.3476 181.187C31.4396 179.934 35.2861 178.372 37.1722 178.292C39.6644 178.193 41.9958 178.891 42.3792 179.014C44.8404 177.465 48.959 175.558 50.1278 175.62C51.0863 175.663 53.1085 176.447 54.0855 176.854C50.0103 178.996 43.1027 184.106 43.1027 184.106C35.2675 185.772 35.5211 195.042 35.5211 195.042Z" fill="#4CB2E0"/>
<path opacity="0.4" d="M49.3609 185.599C49.3609 185.599 53.6341 182.68 55.6377 181.742C57.6414 180.804 58.2845 177.064 56.8745 176.009C56.8251 175.972 56.7694 175.947 56.6952 175.935C56.7447 175.916 56.7942 175.898 56.8374 175.885C58.1794 175.472 60.1335 175.632 61.1972 175.762C58.6061 179.644 56.5777 182.618 56.0397 183.26C54.2278 185.42 49.3609 185.599 49.3609 185.599Z" fill="#4CB2E0"/>
<path opacity="0.4" d="M59.5832 209.959L60.5293 210.366C59.9542 212.656 59.5832 209.959 59.5832 209.959Z" fill="#4CB2E0"/>
<path opacity="0.4" d="M78.0239 189.185C75.5194 188.031 70.6402 182.618 70.028 181.94C73.1324 176.743 76.1749 171.732 77.2324 170.528C79.4277 168.035 82.1054 160.857 81.017 157.377C80.0214 154.18 76.7624 154.692 76.3172 154.778L76.2986 154.914C76.2986 154.914 79.8235 155.352 79.8173 160.438C79.8111 165.529 70.6588 175.601 70.6588 175.601C70.6588 175.601 61.2467 193.221 60.6221 192.956C59.9975 192.691 58.6246 204.731 58.6246 204.731C58.6246 204.731 61.2467 206.959 60.6221 209.959C60.5912 210.107 60.5602 210.243 60.5293 210.366L64.5613 212.1C64.5613 212.1 68.6057 209.268 70.6588 213.433C72.718 217.593 50.9441 232.485 49.2311 234.682C49.2311 234.682 48.9899 242.983 45.8113 244.205C43.752 244.995 40.122 252.845 37.8277 258.283C41.5196 252.407 45.3908 246.6 47.0419 245.267C49.7505 243.076 51.111 240.058 51.7789 237.91C52.6694 235.053 58.3525 231.529 63.8501 228.122C69.929 224.357 76.2058 220.463 76.4285 217.241C76.546 215.575 76.9294 212.816 77.3746 209.613C78.5805 200.936 80.077 190.129 78.0239 189.185ZM67.61 203.059L64.9076 205.7C64.5242 203.54 61.896 200.67 61.4817 200.232C61.7043 199.282 61.797 198.146 61.8836 197.085C61.9826 195.881 62.0877 194.635 62.3845 194.412C62.6814 194.19 64.048 191.962 66.2743 188.235C66.4598 190.845 68.7232 193.721 69.0571 194.135L67.61 203.059Z" fill="#4CB2E0"/>
<path d="M51.6552 185.766C51.6552 185.766 54.1598 185.346 56.0397 183.267C57.9197 181.187 65.4394 171.596 67.5235 168.887C69.6137 166.177 76.2924 154.92 76.2924 154.92C76.2924 154.92 79.8421 154.087 80.8872 157.42C81.9323 160.752 79.4277 167.837 77.1273 170.442C74.833 173.046 63.1328 193.684 62.2979 194.308C61.4631 194.931 62.0877 200.775 60.418 202.022" stroke="#263238" stroke-linecap="round" stroke-linejoin="round"/>
<path d="M61.3332 200.269C61.3332 200.269 64.6046 203.689 64.8087 205.978L67.7337 203.121L69.1931 194.098C69.1931 194.098 66.3052 190.623 66.3918 187.778" stroke="#263238" stroke-linecap="round" stroke-linejoin="round"/>
<path d="M69.8672 181.958C69.8672 181.958 75.2535 188.056 77.9683 189.308C80.6831 190.561 76.7129 211.193 76.2986 217.235C75.8781 223.277 53.5352 231.812 51.6552 237.867C50.907 240.274 49.497 243.106 46.9554 245.162C43.3315 248.093 29.3061 272.045 29.3061 272.045" stroke="#263238" stroke-linecap="round" stroke-linejoin="round"/>
<path d="M61.9393 176.009C61.9393 176.009 58.7545 175.422 56.8745 176.009C54.9946 176.595 47.0605 182.217 45.1805 183.26C43.3006 184.303 40.5858 184.513 39.9612 185.76" stroke="#263238" stroke-linecap="round" stroke-linejoin="round"/>
<path d="M54.5865 177.206C54.5865 177.206 51.377 175.811 50.1278 175.749C48.8724 175.688 43.8634 178.052 41.5629 179.718C39.2686 181.384 37.0362 182.217 35.7128 182.569" stroke="#263238" stroke-linecap="round" stroke-linejoin="round"/>
<path d="M42.3915 179.156C42.3915 179.156 39.887 178.311 37.1722 178.422C34.4574 178.533 27.3582 181.872 25.1319 182.563C22.9057 183.26 21.8606 183.328 20.4691 186.105C19.0777 188.883 17.5441 199.794 16.9195 204.102C16.2949 208.41 17.4081 221.018 16.1527 224.425C14.8973 227.832 12.9617 230.362 11.7682 232.14C9.38736 235.67 9.65328 238.336 5.31827 245.797" stroke="#263238" stroke-linecap="round" stroke-linejoin="round"/>
<path d="M37.3516 186.704C34.6368 189.099 35.1439 193.69 35.5273 195.042C35.9107 196.4 34.2224 201.812 33.703 204.731" stroke="#263238" stroke-linecap="round" stroke-linejoin="round"/>
<path d="M54.5865 188.994C49.6763 189.099 48.1056 192.431 47.7964 194.622" stroke="#263238" stroke-linecap="round" stroke-linejoin="round"/>
<path d="M33.6968 184.1C32.2374 183.995 28.4775 186.291 27.7478 190.037" stroke="#263238" stroke-linecap="round" stroke-linejoin="round"/>
<path d="M69.1993 194.104C69.1993 194.104 69.929 192.018 70.6588 191.814" stroke="#263238" stroke-linecap="round" stroke-linejoin="round"/>
<path d="M67.7337 203.127C67.7337 203.127 67.0349 205.46 66.3918 206.712C65.7486 207.965 66.3918 209.916 66.3918 209.916" stroke="#263238" stroke-linecap="round" stroke-linejoin="round"/>
<path d="M64.8148 205.984C64.7097 208.07 62.4154 210.305 61.9454 209.916" stroke="#263238" stroke-linecap="round" stroke-linejoin="round"/>
<path d="M45.1496 202.436C45.0754 204.725 40.9012 221.506 40.9012 221.506" stroke="#263238" stroke-linecap="round" stroke-linejoin="round"/>
</g>
<defs>
<clipPath id="clip0_11_4717">
<rect width="266" height="283" fill="white"/>
</clipPath>
</defs>
</svg>
