<svg width="45" height="45" viewBox="0 0 45 45" fill="none" xmlns="http://www.w3.org/2000/svg">
<path d="M42.6148 23.3801C43.1434 23.1222 43.4787 22.5865 43.4787 21.9996C43.4787 21.4127 43.1432 20.8769 42.6148 20.6193C37.4504 18.1007 34.0205 15.8032 31.1459 12.9362C28.2714 10.0693 25.9676 6.6485 23.4424 1.49803C23.1843 0.971275 22.6469 0.636473 22.0585 0.636475C21.47 0.636475 20.933 0.970771 20.6744 1.49797C15.8483 11.3384 11.3689 15.806 1.50199 20.6193C0.973388 20.8772 0.638199 21.4129 0.638199 21.9998C0.63827 22.5865 0.973601 23.1222 1.50213 23.3801C6.66641 25.8985 10.0963 28.1961 12.9708 31.0631C15.8455 33.93 18.1492 37.3508 20.6744 42.5013C20.7505 42.6563 20.8504 42.7946 20.9688 42.9127C21.253 43.196 21.6429 43.3628 22.0583 43.3627C22.6468 43.3627 23.1838 43.0285 23.4424 42.5013C28.2687 32.6608 32.7482 28.1932 42.6148 23.3801Z" fill="#228B85"/>
</svg>
